<?xml version="1.0" encoding="UTF-8" standalone="no"?>
<!-- Created with Inkscape (http://www.inkscape.org/) -->

<svg
   xmlns:dc="http://purl.org/dc/elements/1.1/"
   xmlns:cc="http://creativecommons.org/ns#"
   xmlns:rdf="http://www.w3.org/1999/02/22-rdf-syntax-ns#"
   xmlns:svg="http://www.w3.org/2000/svg"
   xmlns="http://www.w3.org/2000/svg"
   xmlns:sodipodi="http://sodipodi.sourceforge.net/DTD/sodipodi-0.dtd"
   xmlns:inkscape="http://www.inkscape.org/namespaces/inkscape"
   width="744.09448819"
   height="1052.3622047"
   id="svg2"
   version="1.1"
   inkscape:version="0.48.2 r9819"
   sodipodi:docname="logo.svg"
   inkscape:export-filename="/home/gbort/Projects/pdf-scores.herokuapp.com/public/images/logo.png"
   inkscape:export-xdpi="33.48315"
   inkscape:export-ydpi="33.48315">
  <defs
     id="defs4" />
  <sodipodi:namedview
     id="base"
     pagecolor="#ffffff"
     bordercolor="#666666"
     borderopacity="1.0"
     inkscape:pageopacity="0.0"
     inkscape:pageshadow="2"
     inkscape:zoom="1"
     inkscape:cx="219.02839"
     inkscape:cy="713.66501"
     inkscape:document-units="px"
     inkscape:current-layer="text2993"
     showgrid="false"
     showguides="true"
     inkscape:guide-bbox="true"
     inkscape:window-width="1022"
     inkscape:window-height="580"
     inkscape:window-x="0"
     inkscape:window-y="18"
     inkscape:window-maximized="1" />
  <metadata
     id="metadata7">
    <rdf:RDF>
      <cc:Work
         rdf:about="">
        <dc:format>image/svg+xml</dc:format>
        <dc:type
           rdf:resource="http://purl.org/dc/dcmitype/StillImage" />
        <dc:title></dc:title>
      </cc:Work>
    </rdf:RDF>
  </metadata>
  <g
     inkscape:label="Layer 1"
     inkscape:groupmode="layer"
     id="layer1">
    <flowRoot
       xml:space="preserve"
       id="flowRoot2985"
       style="fill:black;stroke:none;stroke-opacity:1;stroke-width:1px;stroke-linejoin:miter;stroke-linecap:butt;fill-opacity:1;font-family:Sawasdee;font-style:normal;font-weight:normal;font-size:40px;line-height:125%;letter-spacing:0px;word-spacing:0px;-inkscape-font-specification:Sawasdee;font-stretch:normal;font-variant:normal"><flowRegion
         id="flowRegion2987"><rect
           id="rect2989"
           width="485.71429"
           height="211.42857"
           x="157.14285"
           y="369.50504" /></flowRegion><flowPara
         id="flowPara2991"></flowPara></flowRoot>    <g
       style="font-size:40px;font-style:normal;font-variant:normal;font-weight:bold;font-stretch:normal;line-height:125%;letter-spacing:-10.72999954px;word-spacing:0px;fill:#c8b7b7;fill-opacity:1;stroke:none;font-family:Dolphins;-inkscape-font-specification:Dolphins Bold"
       id="text2993">
      <path
         style="font-size:144px;font-style:normal;font-variant:normal;font-weight:bold;font-stretch:normal;line-height:125%;letter-spacing:-10.72999954px;word-spacing:0px;fill:#000000;fill-opacity:1;stroke:none;font-family:Dolphins;-inkscape-font-specification:Dolphins Bold"
         d="m 204.95644,248.86379 c -0.76807,9e-5 -1.48432,0.0291 -2.15625,0.125 -0.67207,9e-5 -1.38831,0.12059 -2.15625,0.3125 -2.11206,0.38409 -4.32106,1.18959 -6.625,2.4375 -0.65216,0.34027 -1.36623,0.74675 -2.09375,1.1875 l -2.5625,11.9375 c -0.024,0.12 -0.0457,0.26229 -0.0937,0.40625 -5e-5,0.28807 -0.0602,0.58707 -0.15625,0.875 l -0.6875,3.1875 -0.8125,3.6875 -3.09375,14 c -0.19205,-0.0959 -0.4018,-0.18525 -0.59375,-0.28125 -0.096,-0.19195 -0.24555,-0.3415 -0.4375,-0.4375 -1.44005,-1.05595 -2.93279,-1.7722 -4.46875,-2.15625 -1.53604,-0.38395 -3.47504,-0.5937 -5.875,-0.59375 -8.16003,5e-5 -15.53452,3.91155 -22.0625,11.6875 -6.43201,7.68003 -9.625,16.48478 -9.625,26.46875 0,5.76001 1.28299,10.32751 3.875,13.6875 2.59199,3.36 6.11524,5.03125 10.53125,5.03125 1.34398,0 2.62698,-0.1785 3.875,-0.5625 1.34398,-0.288 2.68722,-0.67625 4.03125,-1.15625 2.11197,-1.152 4.23172,-2.734 6.34375,-4.75 2.11196,-2.11199 4.41021,-4.79849 6.90625,-8.0625 -4e-5,0.28801 -4e-5,0.58701 0,0.875 -4e-5,0.28801 -4e-5,0.55576 0,0.84375 -0.096,0.28801 -0.15629,0.58701 -0.15625,0.875 -4e-5,0.19201 -4e-5,0.37051 0,0.5625 -4e-5,3.264 1.10446,5.98175 3.3125,8.09375 2.30395,2.112 5.2292,3.15625 8.78125,3.15625 1.34395,0 2.68719,-0.1495 4.03125,-0.4375 1.43994,-0.192 2.90369,-0.491 4.34375,-0.875 1.34394,-0.48 2.71619,-1.04675 4.15625,-1.71875 1.43993,-0.672 2.78318,-1.4485 4.03125,-2.3125 0.88964,-0.58171 1.67367,-1.14957 2.40625,-1.71875 0.45293,0.81077 0.93062,1.58605 1.5,2.3125 2.78399,3.456 6.27599,5.1875 10.5,5.1875 0.86398,0 1.72973,-0.1205 2.59375,-0.3125 0.86398,-0.192 1.78998,-0.43075 2.75,-0.71875 1.34397,-0.48 2.62697,-1.07575 3.875,-1.84375 1.24797,-0.768 2.41272,-1.694 3.46875,-2.75 0.28797,-0.192 0.52672,-0.3705 0.71875,-0.5625 0.19197,-0.192 0.37047,-0.43075 0.5625,-0.71875 0.096,-0.096 0.2165,-0.2165 0.3125,-0.3125 0.19197,-0.096 0.31025,-0.18525 0.40625,-0.28125 0.76797,-0.768 1.60471,-1.66274 2.46875,-2.71875 0.86396,-1.15199 2.14696,-2.79424 3.875,-4.90625 -0.096,0.67201 -0.12504,1.29901 -0.125,1.875 -4e-5,0.48001 -4e-5,0.95751 0,1.4375 -4e-5,3.36 1.10446,6.13575 3.3125,8.34375 2.20795,2.112 5.0127,3.15625 8.46875,3.15625 1.15195,0 2.3167,-0.0892 3.46875,-0.28125 1.24794,-0.192 2.44169,-0.43075 3.59375,-0.71875 2.20794,-0.576 4.38794,-1.44175 6.5,-2.59375 0.94921,-0.49526 1.84049,-1.04103 2.71875,-1.625 l -0.84375,3.78125 1,0 12.53125,0 9.5,0 5.625,-26.1875 c 0.76797,-3.35997 1.78322,-5.80772 3.03125,-7.34375 1.24796,-1.53597 2.76971,-2.31247 4.59375,-2.3125 1.05596,3e-5 1.92171,0.32803 2.59375,1 0.67196,0.67203 0.99996,1.53778 1,2.59375 -4e-5,0.48003 -4e-5,0.92853 0,1.3125 -4e-5,0.28803 -0.029,0.55578 -0.125,0.84375 -4e-5,0.28803 -0.0602,0.58703 -0.15625,0.875 -4e-5,0.28803 -0.029,0.58703 -0.125,0.875 l -5.34375,28.34375 22.46875,0 1.875,-9.9375 3.4375,-16.25 c 0.76793,-3.35997 1.75418,-5.77872 2.90625,-7.21875 1.15193,-1.43997 2.61343,-2.15622 4.4375,-2.15625 1.34393,3e-5 2.35918,0.38828 3.03125,1.15625 0.67192,0.67203 0.99992,1.77653 1,3.3125 -8e-5,0.38403 -0.0291,0.83253 -0.125,1.3125 -8e-5,0.48003 -0.0893,0.95753 -0.28125,1.4375 l -3.46875,14.96875 c -7e-5,0.19201 -0.0604,0.37051 -0.15625,0.5625 -7e-5,0.096 -0.0291,0.24551 -0.125,0.4375 -7e-5,0.38401 -0.0604,0.77226 -0.15625,1.15625 -7e-5,0.28801 -7e-5,0.58701 0,0.875 -7e-5,3.45601 1.25393,6.292 3.75,8.5 2.59192,2.112 5.90542,3.15625 9.9375,3.15625 0.76791,0 1.54441,-0.0602 2.3125,-0.15625 0.76791,-0.096 1.51316,-0.18525 2.28125,-0.28125 2.11191,-0.384 4.20266,-0.95075 6.21875,-1.71875 2.0159,-0.864 3.9259,-1.9685 5.75,-3.3125 0.3839,-0.288 0.7119,-0.52675 1,-0.71875 0.0681,-0.0511 0.12285,-0.10461 0.1875,-0.15625 0.64098,1.19686 1.55638,2.29572 2.75,3.3125 2.59199,2.112 5.72698,3.15625 9.375,3.15625 1.82398,0 3.73397,-0.26775 5.75,-0.84375 2.01597,-0.48 4.07547,-1.2855 6.1875,-2.4375 1.63197,-0.768 3.21396,-1.694 4.75,-2.75 1.53596,-1.152 3.02871,-2.34574 4.46875,-3.59375 0.19196,2.976 1.35671,5.3345 3.46875,7.0625 2.11195,1.728 4.8877,2.5625 8.34375,2.5625 1.34394,0 2.74744,-0.11825 4.1875,-0.40625 1.53594,-0.192 3.05769,-0.55125 4.59375,-1.03125 1.53594,-0.48 3.02868,-1.04675 4.46875,-1.71875 0.6829,-0.34146 1.32543,-0.71395 1.96875,-1.09375 3.41423,3.70161 9.62663,6.04273 18.625,7 17.25368,1.83549 29.56666,-5.46139 36.90625,-21.875 l -0.75,3.4375 c -10e-6,0.19201 -0.0602,0.43076 -0.15625,0.71875 -10e-6,0.19201 -0.029,0.40176 -0.125,0.59375 -10e-6,0.48001 -0.0602,0.95751 -0.15625,1.4375 l 0,1.15625 c -10e-6,3.45601 1.25399,6.292 3.75,8.5 2.59198,2.112 5.84523,3.15625 9.78125,3.15625 1.53598,0 3.17822,-0.20975 4.90625,-0.59375 1.72797,-0.384 3.48847,-0.8905 5.3125,-1.5625 1.05597,-0.48 2.13146,-1.01775 3.1875,-1.59375 1.15196,-0.576 2.25646,-1.203 3.3125,-1.875 0.63791,-0.39871 1.18201,-0.78879 1.6875,-1.1875 0.42695,0.76737 0.9051,1.50298 1.4375,2.1875 2.78399,3.456 6.21574,5.1875 10.34375,5.1875 0.76799,0 1.54448,-0.029 2.3125,-0.125 0.76798,-0.096 1.54448,-0.30575 2.3125,-0.59375 2.11198,-0.672 4.32098,-1.86575 6.625,-3.59375 2.30397,-1.824 4.84097,-4.361 7.625,-7.625 l -9.0625,38.3125 0.4375,0.125 22.875,-0.125 2.15625,-9.375 c 1.88671,-7.92489 3.36709,-14.17099 4.5625,-19.25 2.67153,0.98726 5.02769,1.70831 7.0625,2.1875 2.72672,0.6052 5.22777,0.82754 7.5,0.71875 1.06025,-0.0652 2.0766,-0.18013 3.09375,-0.375 1.01693,-0.19508 2.05504,-0.46599 3.09375,-0.8125 4.21931,-1.40768 7.32003,-3.89764 9.375,-7.46875 2.0764,-3.50618 2.52516,-7.08358 1.3125,-10.71875 -0.0651,-0.19474 -0.12264,-0.39898 -0.1875,-0.59375 -0.0433,-0.12985 -0.12034,-0.26435 -0.25,-0.4375 -1.21265,-2.76958 -3.25613,-5.03877 -6.15625,-6.8125 -2.5188,-1.49518 -4.93089,-2.18724 -7.1875,-2.0625 -0.32237,0.0178 -0.62104,0.0423 -0.9375,0.0937 l -0.68755,0.2188 c -0.2165,2e-5 -0.43027,0.06 -0.625,0.125 -1.16853,0.38985 -1.87759,0.88201 -2.09375,1.53125 -0.12981,0.69257 0.12188,1.9925 0.75,3.875 0.54135,1.62286 0.37716,3.14606 -0.53125,4.53125 -0.84369,1.36353 -2.21133,2.34071 -4.09375,2.96875 -1.7948,0.59876 -3.93605,0.72511 -6.46875,0.375 3.84497,-16.71565 0.10061,-1.92203 8.03125,-33.75 0.0959,-0.47995 0.15618,-0.8682 0.15625,-1.15625 -7e-5,-0.38395 -7e-5,-0.7722 0,-1.15625 -0.0961,-1.72795 -0.72306,-3.13145 -1.875,-4.1875 -1.15206,-1.15195 -2.55556,-1.7187 -4.1875,-1.71875 -0.38406,5e-5 -0.80131,0.0603 -1.28125,0.15625 -0.38406,5e-5 -0.83256,0.029 -1.3125,0.125 -1.72805,0.28805 -3.45955,0.91505 -5.1875,1.875 -1.72805,0.96005 -3.5488,2.2743 -5.46875,3.90625 -1.82404,-2.20795 -3.82329,-3.78995 -6.03125,-4.75 -2.11204,-1.05595 -4.62004,-1.5937 -7.5,-1.59375 -8.35202,5e-5 -15.87377,3.94055 -22.59375,11.8125 -6.624,7.87203 -9.9375,16.73702 -9.9375,26.625 0,0.94283 0.0479,1.86773 0.125,2.75 -0.0784,0 -0.14031,1e-5 -0.25,0 -0.096,1e-5 -0.21429,1e-5 -0.40625,0 -1.34404,1e-5 -2.41954,-0.44849 -3.1875,-1.3125 -0.76803,-0.95999 -1.15628,-2.18273 -1.15625,-3.71875 -3e-5,-0.28798 -3e-5,-0.67623 0,-1.15625 0.096,-0.47998 0.2165,-0.95748 0.3125,-1.4375 0.096,-0.19198 0.12497,-0.40173 0.125,-0.59375 0.096,-0.19198 0.15622,-0.37048 0.15625,-0.5625 l 4.875,-22.90625 c 0.192,-0.47996 0.31246,-0.95746 0.3125,-1.4375 -4e-5,-0.57595 -4e-5,-1.1137 0,-1.59375 -0.0463,-1.01886 -0.26589,-1.92329 -0.625,-2.71875 2.78662,-1.06805 5.13018,-2.67319 7,-4.84375 2.83085,-3.28064 3.92326,-7.08862 3.28125,-11.40625 -0.39546,-2.65967 -1.6504,-4.78016 -3.71875,-6.34375 -2.06317,-1.52911 -4.43409,-2.08298 -7.09375,-1.6875 l -0.25,0.0312 -0.3125,0.0312 c -1.91373,0.42577 -3.58757,1.36216 -5.03125,2.8125 -1.47818,1.45547 -2.19437,2.93293 -2.15625,4.375 -0.0242,0.0742 -0.0102,0.11853 0,0.1875 0.0104,0.069 0.021,0.14965 0.0312,0.21875 0.0565,0.37993 0.2223,0.66912 0.5,0.875 0.24834,0.24551 0.52632,0.36901 0.90625,0.3125 0.1382,-0.0205 0.30449,-0.10111 0.4375,-0.15625 0.1331,-0.055 0.22255,-0.10799 0.28125,-0.1875 0.46678,-0.42246 0.81517,-0.72886 1.03125,-0.9375 0.2214,-0.17397 0.42293,-0.27836 0.625,-0.34375 0.0639,-0.045 0.14655,-0.078 0.25,-0.0937 0.10361,-0.0155 0.23357,-0.0368 0.40625,-0.0625 -10e-6,-1e-5 0.0282,0.006 0.0625,0 -2e-5,-1e-5 0.028,-0.0263 0.0625,-0.0312 0.75991,-0.113 1.45379,0.0887 2.09375,0.59375 0.63994,0.50505 1.00171,1.17102 1.125,2 0.15921,1.07075 -0.12116,2.04404 -0.90625,2.9375 -0.81446,0.93309 -1.85354,1.5077 -3.0625,1.6875 -1.62339,0.24137 -3.03912,-0.16721 -4.25,-1.1875 -1.2454,-1.01517 -2.00901,-2.41934 -2.28125,-4.25 -0.13864,-0.93262 -0.1045,-1.92414 0.0625,-2.9375 0.16709,-1.01338 0.49781,-2.08495 1,-3.21875 0.0537,-0.11393 0.10253,-0.22994 0.15625,-0.34375 0.0537,-0.11403 0.10603,-0.20375 0.125,-0.3125 0.21983,-0.42108 0.43131,-0.83225 0.65625,-1.21875 0.19562,-0.34679 0.45082,-0.70029 0.75,-1.0625 3.33992,-4.65522 6.84341,-10.18335 -0.6875,-7.90625 -4.08228,1.23151 -9.29837,5.87061 -11.9375,10.65625 -1.85197,3.4528 -2.48657,7.15935 -1.90625,11.0625 0.57998,3.90022 2.35355,6.90281 5.28125,9.09375 -3.00674,1.34503 -6.10273,3.33515 -9.28125,5.96875 1.05599,0.57604 1.83249,1.29229 2.3125,2.15625 0.57598,0.76804 0.87498,1.69404 0.875,2.75 -2e-5,0.67204 -0.0602,1.38829 -0.15625,2.15625 -0.096,0.67204 -0.24552,1.47754 -0.4375,2.4375 l -1.9375,9.03125 -0.0937,-0.25 -0.84375,-4.03125 c -0.0961,-0.19197 -0.0961,-0.37047 0,-0.5625 l -0.4375,-1.15625 -0.28125,-0.28125 -1.75,-3.75 -0.40625,-0.59375 -0.3125,-0.5625 -0.71875,-1.15625 c -0.28806,-0.38396 -0.52681,-0.71196 -0.71875,-1 -0.0961,-0.192 -0.18535,-0.28121 -0.28125,-0.28125 l -0.4375,-0.59375 -0.28125,-0.28125 -0.28125,-0.4375 0,-0.28125 -0.59375,-0.28125 0,-0.28125 -2,-2.03125 0.28125,-0.28125 0.28125,-0.59375 2.15625,-2.71875 c 0.38394,-0.67195 0.83244,-1.3882 1.3125,-2.15625 l 0.15625,-0.59375 1,-1.875 0,-0.28125 0.28125,-0.5625 0.15625,-0.28125 0,-1.59375 -0.875,-1.875 c -0.48006,-0.28794 -1.10706,-0.49765 -1.875,-0.59375 l -0.4375,0 -0.5625,0.15625 -4.75,0.875 c -15.36004,7.87205 -25.30053,14.34954 -29.8125,19.4375 -4.41602,4.99203 -6.77452,7.76778 -7.0625,8.34375 l 4.3125,-0.875 c 0.28798,-0.096 0.49775,-0.096 0.59375,0 l 1.28125,-0.28125 4.03125,-0.4375 0.875,-0.125 1.4375,-0.15625 0.875,-0.125 0.71875,0 2.15625,0 5.1875,-5.90625 0.5625,-0.59375 0.4375,-0.71875 -0.28125,1.3125 c -0.096,0.38404 -0.15629,0.65179 -0.15625,0.84375 l -0.125,0.4375 -0.3125,1.71875 c -0.096,0.38403 -0.0358,0.77228 0.15625,1.15625 l -0.15625,0.59375 c 0.096,0.57603 0.24546,1.05353 0.4375,1.4375 8.06396,1.44003 12.48195,4.66428 13.25,9.65625 -10.36804,-5.47197 -21.17428,-6.54747 -32.40625,-3.1875 l -1.4375,0.59375 -2.71875,1.125 c -0.192,0.096 -0.25225,0.2165 -0.15625,0.3125 l -0.5625,0.40625 -3.75,1.875 -0.4375,0.3125 -2.3125,1.5625 -0.125,0.15625 -0.59375,0.5625 -1.28125,1.3125 c -0.27257,0.79994 -0.53176,1.55462 -0.71875,2.3125 -0.48768,-0.74702 -0.75006,-1.60039 -0.75,-2.59375 -7e-5,-0.38398 0.0602,-0.98198 0.15625,-1.75 0.19193,-0.86398 0.37043,-1.75873 0.5625,-2.71875 l 4.90625,-22.625 c -7e-5,-0.19196 -7e-5,-0.37046 0,-0.5625 0.0959,-0.19196 0.15618,-0.40171 0.15625,-0.59375 0.0959,-0.19195 0.12493,-0.37045 0.125,-0.5625 -7e-5,-0.19195 -7e-5,-0.37045 0,-0.5625 -7e-5,-2.30395 -0.74532,-4.15595 -2.28125,-5.5 -1.44007,-1.34395 -3.41032,-1.99995 -5.90625,-2 -0.48006,5e-5 -0.95756,0.0603 -1.4375,0.15625 -0.48006,5e-5 -0.98881,5e-5 -1.46875,0 -2.59206,0.38405 -5.21831,1.21855 -7.90625,2.5625 -0.77978,0.3899 -1.58642,0.85438 -2.40625,1.34375 l -2.6875,11.5 c -0.0446,0.33653 -0.10572,0.66086 -0.21875,1 l -0.0312,0.0625 -0.125,0.59375 0,0.0625 -1.28125,5.40625 -1.15625,4.96875 c -0.76804,3.07202 -1.78329,5.31002 -3.03125,6.75 -1.24804,1.34402 -2.89029,2.03127 -4.90625,2.03125 -1.15204,2e-5 -2.10704,-0.32798 -2.875,-1 -0.67203,-0.67198 -1.00003,-1.59798 -1,-2.75 -3e-5,-0.28798 0.029,-0.67623 0.125,-1.15625 0.096,-0.57598 0.2165,-1.14273 0.3125,-1.71875 l 4.15625,-20.03125 c -4e-5,-0.096 -4e-5,-0.12496 0,-0.125 0.096,-0.096 0.15621,-0.2165 0.15625,-0.3125 -4e-5,-0.19196 -4e-5,-0.37046 0,-0.5625 -4e-5,-0.19196 -4e-5,-0.49095 0,-0.875 -4e-5,-2.49595 -0.77654,-4.40595 -2.3125,-5.75 -1.44003,-1.43995 -3.43928,-2.1562 -6.03125,-2.15625 -1.92003,5e-5 -4.03978,0.3883 -6.34375,1.15625 -2.30402,0.76805 -4.60227,1.8123 -6.90625,3.15625 -0.0251,0.016 -0.0375,0.0465 -0.0625,0.0625 l -4.375,20.3125 -3.375,16.25 c -0.15869,0.057 -0.3147,0.0938 -0.46875,0.0937 -0.2881,0.096 -0.5871,0.15626 -0.875,0.15625 -0.1921,10e-6 -0.3706,10e-6 -0.5625,0 -1.1521,10e-6 -2.16735,-0.44849 -3.03125,-1.3125 -0.7681,-0.86399 -1.15635,-1.90823 -1.15625,-3.15625 -10e-5,-0.28798 0.0602,-0.70523 0.15625,-1.28125 0.0959,-0.57598 0.18515,-1.17398 0.28125,-1.75 -10e-5,-0.096 -10e-5,-0.18525 0,-0.28125 0.0959,-0.096 0.15615,-0.18525 0.15625,-0.28125 l 3.875,-18.4375 c 0.0959,-0.19196 0.15615,-0.37046 0.15625,-0.5625 -10e-5,-0.28796 0.0289,-0.55796 0.125,-0.75 -10e-5,-0.38396 -10e-5,-0.74096 0,-1.125 0.0959,-0.47996 0.15615,-0.95746 0.15625,-1.4375 -10e-5,-3.35995 -1.2541,-6.1067 -3.75,-8.21875 -2.4001,-2.11195 -5.50384,-3.1562 -9.34375,-3.15625 -1.44009,5e-5 -2.87259,0.1183 -4.3125,0.40625 -1.34408,0.19205 -2.71858,0.5513 -4.0625,1.03125 -1.92008,0.67205 -3.85908,1.5668 -5.875,2.71875 -1.92007,1.15205 -3.95057,2.58455 -6.0625,4.3125 -0.76807,-2.78395 -2.26082,-4.87245 -4.46875,-6.3125 -2.11206,-1.53595 -4.82756,-2.31245 -8.1875,-2.3125 -1.05605,5e-5 -2.13155,0.0602 -3.1875,0.15625 -0.96005,0.096 -1.91505,0.27455 -2.875,0.5625 -1.92005,0.57605 -3.95055,1.4708 -6.0625,2.71875 -2.11204,1.24805 -4.55979,2.97955 -7.34375,5.1875 -0.096,-2.68795 -0.84129,-4.74745 -2.28125,-6.1875 -1.44003,-1.43995 -3.41028,-2.1562 -5.90625,-2.15625 -1.53603,5e-5 -3.11803,0.2098 -4.75,0.59375 -1.63202,0.28805 -3.27427,0.79455 -4.90625,1.5625 -1.453,0.56509 -2.86491,1.28849 -4.25,2.125 l -2.65625,12.28125 c -0.008,0.0508 0.008,0.10541 0,0.15625 l -0.0312,0.0937 -0.125,0.53125 c -0.001,0.0318 0,0.0607 0,0.0937 -1e-5,0.28804 -0.029,0.55579 -0.125,0.84375 l -3.0625,14 -0.125,0.53125 -1.78125,8.09375 c -0.1299,0.045 -0.23909,0.074 -0.375,0.125 -0.19207,0.096 -0.40182,0.2165 -0.59375,0.3125 -0.0961,1e-5 -0.24557,1e-5 -0.4375,0 -0.28807,0.096 -0.61607,0.18525 -1,0.28125 -0.28807,1e-5 -0.61607,1e-5 -1,0 -1.15207,1e-5 -2.16731,-0.38824 -3.03125,-1.15625 -0.86406,-0.86399 -1.25235,-1.78998 -1.15625,-2.75 -6e-5,-0.47998 0.0601,-1.07573 0.15625,-1.84375 0.19194,-0.86398 0.43069,-1.93948 0.71875,-3.1875 l 5.3124,-23.9061 c 0.1919,-0.57595 0.31243,-1.08245 0.3125,-1.5625 0.0959,-0.47995 0.12493,-0.8682 0.125,-1.15625 -7e-5,-1.63195 -0.56682,-2.9462 -1.71875,-3.90625 -1.15207,-1.05595 -2.70507,-1.56245 -4.625,-1.5625 -0.48006,5e-5 -0.95756,0.0291 -1.4375,0.125 -0.48006,5e-5 -0.89731,0.0603 -1.28125,0.15625 -1.34406,0.28805 -2.77656,0.8548 -4.3125,1.71875 -1.44005,0.76805 -3.47055,2.05105 -6.0625,3.875 -1.82405,-2.11195 -3.9438,-3.6337 -6.34375,-4.59375 -2.30404,-1.05595 -4.84104,-1.5937 -7.625,-1.59375 -7.96803,5e-5 -15.25102,4.0008 -21.875,11.96875 -6.52801,7.87203 -9.8125,16.64778 -9.8125,26.34375 0,0.91668 0.0495,1.79421 0.125,2.65625 -0.0953,0.0228 -0.18754,0.0625 -0.28125,0.0937 -0.19207,10e-6 -0.45982,10e-6 -0.84375,0 -1.15207,10e-6 -2.10707,-0.38824 -2.875,-1.15625 -0.76806,-0.86399 -1.15631,-1.93948 -1.15625,-3.1875 -6e-5,-0.38398 -6e-5,-0.86148 0,-1.4375 0.0959,-0.57598 0.18515,-1.14273 0.28125,-1.71875 0.0959,-0.096 0.15619,-0.24548 0.15625,-0.4375 0.0959,-0.19198 0.12494,-0.3415 0.125,-0.4375 l 12.6875,-57.3125 c 0.0959,-0.19192 0.12492,-0.31015 0.125,-0.40625 -8e-5,-0.19192 0.0601,-0.40167 0.15625,-0.59375 -8e-5,-0.19192 -8e-5,-0.37042 0,-0.5625 -8e-5,-0.19192 -8e-5,-0.43067 0,-0.71875 -8e-5,-2.49592 -0.77658,-4.43717 -2.3125,-5.78125 -1.53607,-1.34391 -3.68482,-1.99991 -6.46875,-2 z m 342.78125,42.1875 c -4e-5,5e-5 0.029,0.0602 0.125,0.15625 0.19196,5e-5 0.40171,5e-5 0.59375,0 1.05596,0.38405 1.71196,1.60679 2,3.71875 0.38396,2.11204 0.35496,4.91904 -0.125,8.375 -0.86404,6.04803 -2.26754,11.33177 -4.1875,15.84375 -1.82403,4.51201 -3.49528,6.60051 -5.03125,6.3125 -1.15203,-0.096 -1.92853,-1.22949 -2.3125,-3.4375 -0.38403,-2.30398 -0.35503,-5.20023 0.125,-8.65625 -3e-5,-0.28798 -3e-5,-0.4665 0,-0.5625 0.096,-0.096 0.15622,-0.24548 0.15625,-0.4375 0.76797,-5.18397 2.02197,-9.84072 3.75,-13.96875 1.82397,-4.22396 3.46622,-6.6717 4.90625,-7.34375 z m -308.65625,0.875 c -4e-5,5e-5 0.0602,0.029 0.15625,0.125 0.19196,5e-5 0.37046,5e-5 0.5625,0 1.05596,0.38404 1.74321,1.63804 2.03125,3.75 0.38396,2.11204 0.32371,4.88779 -0.15625,8.34375 -0.86404,6.04803 -2.23629,11.33177 -4.15625,15.84375 -1.82403,4.51201 -3.52653,6.63176 -5.0625,6.34375 -1.15203,-0.096 -1.89728,-1.26074 -2.28125,-3.46875 -0.38403,-2.30398 -0.35503,-5.16898 0.125,-8.625 -3e-5,-0.28798 -3e-5,-0.49775 0,-0.59375 0.096,-0.096 0.15622,-0.21423 0.15625,-0.40625 0.76797,-5.18397 2.02197,-9.84072 3.75,-13.96875 1.82396,-4.22396 3.43496,-6.67171 4.875,-7.34375 z m -61.5,1.125 c -4e-5,4e-5 0.0602,0.0602 0.15625,0.15625 0.096,4e-5 0.24546,4e-5 0.4375,0 0.76796,0.28804 1.27446,1.30329 1.5625,3.03125 0.28796,1.63204 0.25896,3.78079 -0.125,6.46875 -0.67204,4.80003 -1.77654,9.03953 -3.3125,12.6875 -1.44004,3.55202 -2.78329,5.16302 -4.03125,4.875 -0.86403,2e-5 -1.49103,-0.89473 -1.875,-2.71875 -0.28803,-1.82398 -0.22778,-4.09323 0.15625,-6.78125 -3e-5,-0.28797 -3e-5,-0.43747 0,-0.4375 0.096,-0.096 0.12497,-0.21422 0.125,-0.40625 0.67197,-4.12797 1.68721,-7.82971 3.03125,-11.09375 1.43996,-3.26396 2.72296,-5.20521 3.875,-5.78125 z m 281.4375,25.96875 c 2.38499,0.0375 4.51498,0.50626 6.375,1.40625 -1.44004,2.78401 -4.06629,4.66501 -7.90625,5.625 -4.51203,1.34401 -7.64703,0.80626 -9.375,-1.59375 -0.48002,-1.05599 -0.54027,-2.07124 -0.15625,-3.03125 l 0.3125,-0.125 1.4375,-0.59375 0.84375,-0.125 3.90625,-1.15625 c 1.61998,-0.28799 3.1315,-0.42875 4.5625,-0.40625 z"
         id="path2998-0"
         inkscape:connector-curvature="0"
         inkscape:export-filename="/home/gbort/Projects/pdf-scores.herokuapp.com/public/images/path2998-0-2.png"
         inkscape:export-xdpi="33.48315"
         inkscape:export-ydpi="33.48315" />
      <path
         style="font-size:144px;font-style:normal;font-variant:normal;font-weight:bold;font-stretch:normal;line-height:125%;letter-spacing:-10.72999953999999967px;word-spacing:0px;fill:#e3e2db;fill-opacity:1;stroke:none;font-family:Dolphins;-inkscape-font-specification:Dolphins Bold"
         d="m 203.94881,246.40745 c -0.76807,9e-5 -1.48432,0.0291 -2.15625,0.125 -0.67207,9e-5 -1.38831,0.12059 -2.15625,0.3125 -2.11206,0.38409 -4.32106,1.18959 -6.625,2.4375 -0.65216,0.34027 -1.36623,0.74675 -2.09375,1.1875 l -2.5625,11.9375 c -0.024,0.12 -0.0457,0.26229 -0.0937,0.40625 -5e-5,0.28807 -0.0602,0.58707 -0.15625,0.875 l -0.6875,3.1875 -0.8125,3.6875 -3.09375,14 c -0.19205,-0.0959 -0.4018,-0.18525 -0.59375,-0.28125 -0.096,-0.19195 -0.24555,-0.3415 -0.4375,-0.4375 -1.44005,-1.05595 -2.93279,-1.7722 -4.46875,-2.15625 -1.53604,-0.38395 -3.47504,-0.5937 -5.875,-0.59375 -8.16003,5e-5 -15.53452,3.91155 -22.0625,11.6875 -6.43201,7.68003 -9.625,16.48478 -9.625,26.46875 0,5.76001 1.28299,10.32751 3.875,13.6875 2.59199,3.36 6.11524,5.03125 10.53125,5.03125 1.34398,0 2.62698,-0.1785 3.875,-0.5625 1.34398,-0.288 2.68722,-0.67625 4.03125,-1.15625 2.11197,-1.152 4.23172,-2.734 6.34375,-4.75 2.11196,-2.11199 4.41021,-4.79849 6.90625,-8.0625 -4e-5,0.28801 -4e-5,0.58701 0,0.875 -4e-5,0.28801 -4e-5,0.55576 0,0.84375 -0.096,0.28801 -0.15629,0.58701 -0.15625,0.875 -4e-5,0.19201 -4e-5,0.37051 0,0.5625 -4e-5,3.264 1.10446,5.98175 3.3125,8.09375 2.30395,2.112 5.2292,3.15625 8.78125,3.15625 1.34395,0 2.68719,-0.1495 4.03125,-0.4375 1.43994,-0.192 2.90369,-0.491 4.34375,-0.875 1.34394,-0.48 2.71619,-1.04675 4.15625,-1.71875 1.43993,-0.672 2.78318,-1.4485 4.03125,-2.3125 0.88964,-0.58171 1.67367,-1.14957 2.40625,-1.71875 0.45293,0.81077 0.93062,1.58605 1.5,2.3125 2.78399,3.456 6.27599,5.1875 10.5,5.1875 0.86398,0 1.72973,-0.1205 2.59375,-0.3125 0.86398,-0.192 1.78998,-0.43075 2.75,-0.71875 1.34397,-0.48 2.62697,-1.07575 3.875,-1.84375 1.24797,-0.768 2.41272,-1.694 3.46875,-2.75 0.28797,-0.192 0.52672,-0.3705 0.71875,-0.5625 0.19197,-0.192 0.37047,-0.43075 0.5625,-0.71875 0.096,-0.096 0.2165,-0.2165 0.3125,-0.3125 0.19197,-0.096 0.31025,-0.18525 0.40625,-0.28125 0.76797,-0.768 1.60471,-1.66274 2.46875,-2.71875 0.86396,-1.15199 2.14696,-2.79424 3.875,-4.90625 -0.096,0.67201 -0.12504,1.29901 -0.125,1.875 -4e-5,0.48001 -4e-5,0.95751 0,1.4375 -4e-5,3.36 1.10446,6.13575 3.3125,8.34375 2.20795,2.112 5.0127,3.15625 8.46875,3.15625 1.15195,0 2.3167,-0.0892 3.46875,-0.28125 1.24794,-0.192 2.44169,-0.43075 3.59375,-0.71875 2.20794,-0.576 4.38794,-1.44175 6.5,-2.59375 0.94921,-0.49526 1.84049,-1.04103 2.71875,-1.625 l -0.84375,3.78125 1,0 12.53125,0 9.5,0 5.625,-26.1875 c 0.76797,-3.35997 1.78322,-5.80772 3.03125,-7.34375 1.24796,-1.53597 2.76971,-2.31247 4.59375,-2.3125 1.05596,3e-5 1.92171,0.32803 2.59375,1 0.67196,0.67203 0.99996,1.53778 1,2.59375 -4e-5,0.48003 -4e-5,0.92853 0,1.3125 -4e-5,0.28803 -0.029,0.55578 -0.125,0.84375 -4e-5,0.28803 -0.0602,0.58703 -0.15625,0.875 -4e-5,0.28803 -0.029,0.58703 -0.125,0.875 l -5.34375,28.34375 22.46875,0 1.875,-9.9375 3.4375,-16.25 c 0.76793,-3.35997 1.75418,-5.77872 2.90625,-7.21875 1.15193,-1.43997 2.61343,-2.15622 4.4375,-2.15625 1.34393,3e-5 2.35918,0.38828 3.03125,1.15625 0.67192,0.67203 0.99992,1.77653 1,3.3125 -8e-5,0.38403 -0.0291,0.83253 -0.125,1.3125 -8e-5,0.48003 -0.0893,0.95753 -0.28125,1.4375 l -3.46875,14.96875 c -7e-5,0.19201 -0.0604,0.37051 -0.15625,0.5625 -7e-5,0.096 -0.0291,0.24551 -0.125,0.4375 -7e-5,0.38401 -0.0604,0.77226 -0.15625,1.15625 -7e-5,0.28801 -7e-5,0.58701 0,0.875 -7e-5,3.45601 1.25393,6.292 3.75,8.5 2.59192,2.112 5.90542,3.15625 9.9375,3.15625 0.76791,0 1.54441,-0.0602 2.3125,-0.15625 0.76791,-0.096 1.51316,-0.18525 2.28125,-0.28125 2.11191,-0.384 4.20266,-0.95075 6.21875,-1.71875 2.0159,-0.864 3.9259,-1.9685 5.75,-3.3125 0.3839,-0.288 0.7119,-0.52675 1,-0.71875 0.0681,-0.0511 0.12285,-0.10461 0.1875,-0.15625 0.64098,1.19686 1.55638,2.29572 2.75,3.3125 2.59199,2.112 5.72698,3.15625 9.375,3.15625 1.82398,0 3.73397,-0.26775 5.75,-0.84375 2.01597,-0.48 4.07547,-1.2855 6.1875,-2.4375 1.63197,-0.768 3.21396,-1.694 4.75,-2.75 1.53596,-1.152 3.02871,-2.34574 4.46875,-3.59375 0.19196,2.976 1.35671,5.3345 3.46875,7.0625 2.11195,1.728 4.8877,2.5625 8.34375,2.5625 1.34394,0 2.74744,-0.11825 4.1875,-0.40625 1.53594,-0.192 3.05769,-0.55125 4.59375,-1.03125 1.53594,-0.48 3.02868,-1.04675 4.46875,-1.71875 0.6829,-0.34146 1.32543,-0.71395 1.96875,-1.09375 3.41423,3.70161 9.62663,6.04273 18.625,7 17.25368,1.83549 29.56666,-5.46139 36.90625,-21.875 l -0.75,3.4375 c -1e-5,0.19201 -0.0602,0.43076 -0.15625,0.71875 -1e-5,0.19201 -0.029,0.40176 -0.125,0.59375 -1e-5,0.48001 -0.0602,0.95751 -0.15625,1.4375 l 0,1.15625 c -1e-5,3.45601 1.25399,6.292 3.75,8.5 2.59198,2.112 5.84523,3.15625 9.78125,3.15625 1.53598,0 3.17822,-0.20975 4.90625,-0.59375 1.72797,-0.384 3.48847,-0.8905 5.3125,-1.5625 1.05597,-0.48 2.13146,-1.01775 3.1875,-1.59375 1.15196,-0.576 2.25646,-1.203 3.3125,-1.875 0.63791,-0.39871 1.18201,-0.78879 1.6875,-1.1875 0.42695,0.76737 0.9051,1.50298 1.4375,2.1875 2.78399,3.456 6.21574,5.1875 10.34375,5.1875 0.76799,0 1.54448,-0.029 2.3125,-0.125 0.76798,-0.096 1.54448,-0.30575 2.3125,-0.59375 2.11198,-0.672 4.32098,-1.86575 6.625,-3.59375 2.30397,-1.824 4.84097,-4.361 7.625,-7.625 l -9.0625,38.3125 0.4375,0.125 22.875,-0.125 2.15625,-9.375 c 1.88671,-7.92489 3.36709,-14.17099 4.5625,-19.25 2.67153,0.98726 5.02769,1.70831 7.0625,2.1875 2.72672,0.6052 5.22777,0.82754 7.5,0.71875 1.06025,-0.0652 2.0766,-0.18013 3.09375,-0.375 1.01693,-0.19508 2.05504,-0.46599 3.09375,-0.8125 4.21931,-1.40768 7.32003,-3.89764 9.375,-7.46875 2.0764,-3.50618 2.52516,-7.08358 1.3125,-10.71875 -0.0651,-0.19474 -0.12264,-0.39898 -0.1875,-0.59375 -0.0433,-0.12985 -0.12034,-0.26435 -0.25,-0.4375 -1.21265,-2.76958 -3.25613,-5.03877 -6.15625,-6.8125 -2.5188,-1.49518 -4.93089,-2.18724 -7.1875,-2.0625 -0.32237,0.0178 -0.62104,0.0423 -0.9375,0.0937 l -0.68755,0.2188 c -0.2165,2e-5 -0.43027,0.06 -0.625,0.125 -1.16853,0.38985 -1.87759,0.88201 -2.09375,1.53125 -0.12981,0.69257 0.12188,1.9925 0.75,3.875 0.54135,1.62286 0.37716,3.14606 -0.53125,4.53125 -0.84369,1.36353 -2.21133,2.34071 -4.09375,2.96875 -1.7948,0.59876 -3.93605,0.72511 -6.46875,0.375 3.84497,-16.71565 0.10061,-1.92203 8.03125,-33.75 0.0959,-0.47995 0.15618,-0.8682 0.15625,-1.15625 -7e-5,-0.38395 -7e-5,-0.7722 0,-1.15625 -0.0961,-1.72795 -0.72306,-3.13145 -1.875,-4.1875 -1.15206,-1.15195 -2.55556,-1.7187 -4.1875,-1.71875 -0.38406,5e-5 -0.80131,0.0603 -1.28125,0.15625 -0.38406,5e-5 -0.83256,0.029 -1.3125,0.125 -1.72805,0.28805 -3.45955,0.91505 -5.1875,1.875 -1.72805,0.96005 -3.5488,2.2743 -5.46875,3.90625 -1.82404,-2.20795 -3.82329,-3.78995 -6.03125,-4.75 -2.11204,-1.05595 -4.62004,-1.5937 -7.5,-1.59375 -8.35202,5e-5 -15.87377,3.94055 -22.59375,11.8125 -6.624,7.87203 -9.9375,16.73702 -9.9375,26.625 0,0.94283 0.0479,1.86773 0.125,2.75 -0.0784,0 -0.14031,1e-5 -0.25,0 -0.096,1e-5 -0.21429,1e-5 -0.40625,0 -1.34404,1e-5 -2.41954,-0.44849 -3.1875,-1.3125 -0.76803,-0.95999 -1.15628,-2.18273 -1.15625,-3.71875 -3e-5,-0.28798 -3e-5,-0.67623 0,-1.15625 0.096,-0.47998 0.2165,-0.95748 0.3125,-1.4375 0.096,-0.19198 0.12497,-0.40173 0.125,-0.59375 0.096,-0.19198 0.15622,-0.37048 0.15625,-0.5625 l 4.875,-22.90625 c 0.192,-0.47996 0.31246,-0.95746 0.3125,-1.4375 -4e-5,-0.57595 -4e-5,-1.1137 0,-1.59375 -0.0463,-1.01886 -0.26589,-1.92329 -0.625,-2.71875 2.78662,-1.06805 5.13018,-2.67319 7,-4.84375 2.83085,-3.28064 3.92326,-7.08862 3.28125,-11.40625 -0.39546,-2.65967 -1.6504,-4.78016 -3.71875,-6.34375 -2.06317,-1.52911 -4.43409,-2.08298 -7.09375,-1.6875 l -0.25,0.0312 -0.3125,0.0312 c -1.91373,0.42577 -3.58757,1.36216 -5.03125,2.8125 -1.47818,1.45547 -2.19437,2.93293 -2.15625,4.375 -0.0242,0.0742 -0.0102,0.11853 0,0.1875 0.0104,0.069 0.021,0.14965 0.0312,0.21875 0.0565,0.37993 0.2223,0.66912 0.5,0.875 0.24834,0.24551 0.52632,0.36901 0.90625,0.3125 0.1382,-0.0205 0.30449,-0.10111 0.4375,-0.15625 0.1331,-0.055 0.22255,-0.10799 0.28125,-0.1875 0.46678,-0.42246 0.81517,-0.72886 1.03125,-0.9375 0.2214,-0.17397 0.42293,-0.27836 0.625,-0.34375 0.0639,-0.045 0.14655,-0.078 0.25,-0.0937 0.10361,-0.0155 0.23357,-0.0368 0.40625,-0.0625 -10e-6,-10e-6 0.0282,0.006 0.0625,0 -2e-5,-10e-6 0.028,-0.0263 0.0625,-0.0312 0.75991,-0.113 1.45379,0.0887 2.09375,0.59375 0.63994,0.50505 1.00171,1.17102 1.125,2 0.15921,1.07075 -0.12116,2.04404 -0.90625,2.9375 -0.81446,0.93309 -1.85354,1.5077 -3.0625,1.6875 -1.62339,0.24137 -3.03912,-0.16721 -4.25,-1.1875 -1.2454,-1.01517 -2.00901,-2.41934 -2.28125,-4.25 -0.13864,-0.93262 -0.1045,-1.92414 0.0625,-2.9375 0.16709,-1.01338 0.49781,-2.08495 1,-3.21875 0.0537,-0.11393 0.10253,-0.22994 0.15625,-0.34375 0.0537,-0.11403 0.10603,-0.20375 0.125,-0.3125 0.21983,-0.42108 0.43131,-0.83225 0.65625,-1.21875 0.19562,-0.34679 0.45082,-0.70029 0.75,-1.0625 3.33992,-4.65523 6.84341,-10.18335 -0.6875,-7.90625 -4.08228,1.2315 -9.29837,5.87061 -11.9375,10.65625 -1.85197,3.4528 -2.48657,7.15935 -1.90625,11.0625 0.57998,3.90022 2.35355,6.90281 5.28125,9.09375 -3.00674,1.34503 -6.10273,3.33515 -9.28125,5.96875 1.05599,0.57604 1.83249,1.29229 2.3125,2.15625 0.57598,0.76804 0.87498,1.69404 0.875,2.75 -2e-5,0.67204 -0.0602,1.38829 -0.15625,2.15625 -0.096,0.67204 -0.24552,1.47754 -0.4375,2.4375 l -1.9375,9.03125 -0.0937,-0.25 -0.84375,-4.03125 c -0.0961,-0.19197 -0.0961,-0.37047 0,-0.5625 l -0.4375,-1.15625 -0.28125,-0.28125 -1.75,-3.75 -0.40625,-0.59375 -0.3125,-0.5625 -0.71875,-1.15625 c -0.28806,-0.38396 -0.52681,-0.71196 -0.71875,-1 -0.0961,-0.192 -0.18535,-0.28121 -0.28125,-0.28125 l -0.4375,-0.59375 -0.28125,-0.28125 -0.28125,-0.4375 0,-0.28125 -0.59375,-0.28125 0,-0.28125 -2,-2.03125 0.28125,-0.28125 0.28125,-0.59375 2.15625,-2.71875 c 0.38394,-0.67195 0.83244,-1.3882 1.3125,-2.15625 l 0.15625,-0.59375 1,-1.875 0,-0.28125 0.28125,-0.5625 0.15625,-0.28125 0,-1.59375 -0.875,-1.875 c -0.48006,-0.28794 -1.10706,-0.49765 -1.875,-0.59375 l -0.4375,0 -0.5625,0.15625 -4.75,0.875 c -15.36004,7.87205 -25.30053,14.34954 -29.8125,19.4375 -4.41602,4.99203 -6.77452,7.76778 -7.0625,8.34375 l 4.3125,-0.875 c 0.28798,-0.096 0.49775,-0.096 0.59375,0 l 1.28125,-0.28125 4.03125,-0.4375 0.875,-0.125 1.4375,-0.15625 0.875,-0.125 0.71875,0 2.15625,0 5.1875,-5.90625 0.5625,-0.59375 0.4375,-0.71875 -0.28125,1.3125 c -0.096,0.38404 -0.15629,0.65179 -0.15625,0.84375 l -0.125,0.4375 -0.3125,1.71875 c -0.096,0.38403 -0.0358,0.77228 0.15625,1.15625 l -0.15625,0.59375 c 0.096,0.57603 0.24546,1.05353 0.4375,1.4375 8.06396,1.44003 12.48195,4.66428 13.25,9.65625 -10.36804,-5.47197 -21.17428,-6.54747 -32.40625,-3.1875 l -1.4375,0.59375 -2.71875,1.125 c -0.192,0.096 -0.25225,0.2165 -0.15625,0.3125 l -0.5625,0.40625 -3.75,1.875 -0.4375,0.3125 -2.3125,1.5625 -0.125,0.15625 -0.59375,0.5625 -1.28125,1.3125 c -0.27257,0.79994 -0.53176,1.55462 -0.71875,2.3125 -0.48768,-0.74702 -0.75006,-1.60039 -0.75,-2.59375 -7e-5,-0.38398 0.0602,-0.98198 0.15625,-1.75 0.19193,-0.86398 0.37043,-1.75873 0.5625,-2.71875 l 4.90625,-22.625 c -7e-5,-0.19196 -7e-5,-0.37046 0,-0.5625 0.0959,-0.19196 0.15618,-0.40171 0.15625,-0.59375 0.0959,-0.19195 0.12493,-0.37045 0.125,-0.5625 -7e-5,-0.19195 -7e-5,-0.37045 0,-0.5625 -7e-5,-2.30395 -0.74532,-4.15595 -2.28125,-5.5 -1.44007,-1.34395 -3.41032,-1.99995 -5.90625,-2 -0.48006,5e-5 -0.95756,0.0603 -1.4375,0.15625 -0.48006,5e-5 -0.98881,5e-5 -1.46875,0 -2.59206,0.38405 -5.21831,1.21855 -7.90625,2.5625 -0.77978,0.3899 -1.58642,0.85438 -2.40625,1.34375 l -2.6875,11.5 c -0.0446,0.33653 -0.10572,0.66086 -0.21875,1 l -0.0312,0.0625 -0.125,0.59375 0,0.0625 -1.28125,5.40625 -1.15625,4.96875 c -0.76804,3.07202 -1.78329,5.31002 -3.03125,6.75 -1.24804,1.34402 -2.89029,2.03127 -4.90625,2.03125 -1.15204,2e-5 -2.10704,-0.32798 -2.875,-1 -0.67203,-0.67198 -1.00003,-1.59798 -1,-2.75 -3e-5,-0.28798 0.029,-0.67623 0.125,-1.15625 0.096,-0.57598 0.2165,-1.14273 0.3125,-1.71875 l 4.15625,-20.03125 c -4e-5,-0.096 -4e-5,-0.12496 0,-0.125 0.096,-0.096 0.15621,-0.2165 0.15625,-0.3125 -4e-5,-0.19196 -4e-5,-0.37046 0,-0.5625 -4e-5,-0.19196 -4e-5,-0.49095 0,-0.875 -4e-5,-2.49595 -0.77654,-4.40595 -2.3125,-5.75 -1.44003,-1.43995 -3.43928,-2.1562 -6.03125,-2.15625 -1.92003,5e-5 -4.03978,0.3883 -6.34375,1.15625 -2.30402,0.76805 -4.60227,1.8123 -6.90625,3.15625 -0.0251,0.016 -0.0375,0.0465 -0.0625,0.0625 l -4.375,20.3125 -3.375,16.25 c -0.15869,0.057 -0.3147,0.0938 -0.46875,0.0937 -0.2881,0.096 -0.5871,0.15626 -0.875,0.15625 -0.1921,1e-5 -0.3706,1e-5 -0.5625,0 -1.1521,1e-5 -2.16735,-0.44849 -3.03125,-1.3125 -0.7681,-0.86399 -1.15635,-1.90823 -1.15625,-3.15625 -1e-4,-0.28798 0.0602,-0.70523 0.15625,-1.28125 0.0959,-0.57598 0.18515,-1.17398 0.28125,-1.75 -1e-4,-0.096 -1e-4,-0.18525 0,-0.28125 0.0959,-0.096 0.15615,-0.18525 0.15625,-0.28125 l 3.875,-18.4375 c 0.0959,-0.19196 0.15615,-0.37046 0.15625,-0.5625 -1e-4,-0.28796 0.0289,-0.55796 0.125,-0.75 -1e-4,-0.38396 -1e-4,-0.74096 0,-1.125 0.0959,-0.47996 0.15615,-0.95746 0.15625,-1.4375 -1e-4,-3.35995 -1.2541,-6.1067 -3.75,-8.21875 -2.4001,-2.11195 -5.50384,-3.1562 -9.34375,-3.15625 -1.44009,5e-5 -2.87259,0.1183 -4.3125,0.40625 -1.34408,0.19205 -2.71858,0.5513 -4.0625,1.03125 -1.92008,0.67205 -3.85908,1.5668 -5.875,2.71875 -1.92007,1.15205 -3.95057,2.58455 -6.0625,4.3125 -0.76807,-2.78395 -2.26082,-4.87245 -4.46875,-6.3125 -2.11206,-1.53595 -4.82756,-2.31245 -8.1875,-2.3125 -1.05605,5e-5 -2.13155,0.0602 -3.1875,0.15625 -0.96005,0.096 -1.91505,0.27455 -2.875,0.5625 -1.92005,0.57605 -3.95055,1.4708 -6.0625,2.71875 -2.11204,1.24805 -4.55979,2.97955 -7.34375,5.1875 -0.096,-2.68795 -0.84129,-4.74745 -2.28125,-6.1875 -1.44003,-1.43995 -3.41028,-2.1562 -5.90625,-2.15625 -1.53603,5e-5 -3.11803,0.2098 -4.75,0.59375 -1.63202,0.28805 -3.27427,0.79455 -4.90625,1.5625 -1.453,0.56509 -2.86491,1.28849 -4.25,2.125 l -2.65625,12.28125 c -0.008,0.0508 0.008,0.10541 0,0.15625 l -0.0312,0.0937 -0.125,0.53125 c -0.001,0.0318 0,0.0607 0,0.0937 -1e-5,0.28804 -0.029,0.55579 -0.125,0.84375 l -3.0625,14 -0.125,0.53125 -1.78125,8.09375 c -0.1299,0.045 -0.23909,0.074 -0.375,0.125 -0.19207,0.096 -0.40182,0.2165 -0.59375,0.3125 -0.0961,10e-6 -0.24557,10e-6 -0.4375,0 -0.28807,0.096 -0.61607,0.18525 -1,0.28125 -0.28807,10e-6 -0.61607,10e-6 -1,0 -1.15207,10e-6 -2.16731,-0.38824 -3.03125,-1.15625 -0.86406,-0.86399 -1.25235,-1.78998 -1.15625,-2.75 -6e-5,-0.47998 0.0601,-1.07573 0.15625,-1.84375 0.19194,-0.86398 0.43069,-1.93948 0.71875,-3.1875 l 5.3124,-23.9061 c 0.1919,-0.57595 0.31243,-1.08245 0.3125,-1.5625 0.0959,-0.47995 0.12493,-0.8682 0.125,-1.15625 -7e-5,-1.63195 -0.56682,-2.9462 -1.71875,-3.90625 -1.15207,-1.05595 -2.70507,-1.56245 -4.625,-1.5625 -0.48006,5e-5 -0.95756,0.0291 -1.4375,0.125 -0.48006,5e-5 -0.89731,0.0603 -1.28125,0.15625 -1.34406,0.28805 -2.77656,0.8548 -4.3125,1.71875 -1.44005,0.76805 -3.47055,2.05105 -6.0625,3.875 -1.82405,-2.11195 -3.9438,-3.6337 -6.34375,-4.59375 -2.30404,-1.05595 -4.84104,-1.5937 -7.625,-1.59375 -7.96803,5e-5 -15.25102,4.0008 -21.875,11.96875 -6.52801,7.87203 -9.8125,16.64778 -9.8125,26.34375 0,0.91668 0.0495,1.79421 0.125,2.65625 -0.0953,0.0228 -0.18754,0.0625 -0.28125,0.0937 -0.19207,1e-5 -0.45982,1e-5 -0.84375,0 -1.15207,1e-5 -2.10707,-0.38824 -2.875,-1.15625 -0.76806,-0.86399 -1.15631,-1.93948 -1.15625,-3.1875 -6e-5,-0.38398 -6e-5,-0.86148 0,-1.4375 0.0959,-0.57598 0.18515,-1.14273 0.28125,-1.71875 0.0959,-0.096 0.15619,-0.24548 0.15625,-0.4375 0.0959,-0.19198 0.12494,-0.3415 0.125,-0.4375 l 12.6875,-57.3125 c 0.0959,-0.19192 0.12492,-0.31016 0.125,-0.40626 -8e-5,-0.19192 0.0601,-0.40167 0.15625,-0.59375 -8e-5,-0.19192 -8e-5,-0.37042 0,-0.5625 -8e-5,-0.19192 -8e-5,-0.43067 0,-0.71875 -8e-5,-2.49591 -0.77658,-4.43716 -2.3125,-5.78124 -1.53607,-1.34391 -3.68482,-1.99991 -6.46875,-2 z m 342.78125,42.1875 c -4e-5,5e-5 0.029,0.0602 0.125,0.15625 0.19196,5e-5 0.40171,5e-5 0.59375,0 1.05596,0.38405 1.71196,1.60679 2,3.71875 0.38396,2.11204 0.35496,4.91904 -0.125,8.375 -0.86404,6.04803 -2.26754,11.33177 -4.1875,15.84375 -1.82403,4.51201 -3.49528,6.60051 -5.03125,6.3125 -1.15203,-0.096 -1.92853,-1.22949 -2.3125,-3.4375 -0.38403,-2.30398 -0.35503,-5.20023 0.125,-8.65625 -3e-5,-0.28798 -3e-5,-0.4665 0,-0.5625 0.096,-0.096 0.15622,-0.24548 0.15625,-0.4375 0.76797,-5.18397 2.02197,-9.84072 3.75,-13.96875 1.82397,-4.22396 3.46622,-6.6717 4.90625,-7.34375 z m -308.65625,0.875 c -4e-5,5e-5 0.0602,0.029 0.15625,0.125 0.19196,5e-5 0.37046,5e-5 0.5625,0 1.05596,0.38404 1.74321,1.63804 2.03125,3.75 0.38396,2.11204 0.32371,4.88779 -0.15625,8.34375 -0.86404,6.04803 -2.23629,11.33177 -4.15625,15.84375 -1.82403,4.51201 -3.52653,6.63176 -5.0625,6.34375 -1.15203,-0.096 -1.89728,-1.26074 -2.28125,-3.46875 -0.38403,-2.30398 -0.35503,-5.16898 0.125,-8.625 -3e-5,-0.28798 -3e-5,-0.49775 0,-0.59375 0.096,-0.096 0.15622,-0.21423 0.15625,-0.40625 0.76797,-5.18397 2.02197,-9.84072 3.75,-13.96875 1.82396,-4.22396 3.43496,-6.67171 4.875,-7.34375 z m -61.5,1.125 c -4e-5,4e-5 0.0602,0.0602 0.15625,0.15625 0.096,4e-5 0.24546,4e-5 0.4375,0 0.76796,0.28804 1.27446,1.30329 1.5625,3.03125 0.28796,1.63204 0.25896,3.78079 -0.125,6.46875 -0.67204,4.80003 -1.77654,9.03953 -3.3125,12.6875 -1.44004,3.55202 -2.78329,5.16302 -4.03125,4.875 -0.86403,2e-5 -1.49103,-0.89473 -1.875,-2.71875 -0.28803,-1.82398 -0.22778,-4.09323 0.15625,-6.78125 -3e-5,-0.28797 -3e-5,-0.43747 0,-0.4375 0.096,-0.096 0.12497,-0.21422 0.125,-0.40625 0.67197,-4.12797 1.68721,-7.82971 3.03125,-11.09375 1.43996,-3.26396 2.72296,-5.20521 3.875,-5.78125 z m 281.4375,25.96875 c 2.38499,0.0375 4.51498,0.50626 6.375,1.40625 -1.44004,2.78401 -4.06629,4.66501 -7.90625,5.625 -4.51203,1.34401 -7.64703,0.80626 -9.375,-1.59375 -0.48002,-1.05599 -0.54027,-2.07124 -0.15625,-3.03125 l 0.3125,-0.125 1.4375,-0.59375 0.84375,-0.125 3.90625,-1.15625 c 1.61998,-0.28799 3.1315,-0.42875 4.5625,-0.40625 z"
         id="path2998-0-2"
         inkscape:connector-curvature="0"
         inkscape:export-filename="/home/gbort/Projects/pdf-scores.herokuapp.com/public/images/path2998-0-2.png"
         inkscape:export-xdpi="33.48315"
         inkscape:export-ydpi="33.48315" />
      <g
         style="font-size:23.33713150000000169px;font-weight:normal;letter-spacing:0px;fill:#24221c;font-family:Sawasdee;-inkscape-font-specification:Sawasdee"
         id="text3421"
         transform="translate(-21.213203,8.4852813)">
        <path
           d="m 618.00736,288.00672 c -10e-6,0.50898 -0.10256,1.09393 -0.30767,1.75485 l -2.01693,0 c 0.34185,-0.61534 0.51278,-1.74345 0.51278,-3.38434 l 0,-13.60573 1.81182,0 0,7.13332 c 0.47858,-0.55455 1.06353,-1.00656 1.75484,-1.35602 0.69889,-0.34943 1.3826,-0.52416 2.05111,-0.52417 1.03315,10e-6 1.97514,0.27349 2.82598,0.82045 0.85842,0.54697 1.52693,1.27625 2.00554,2.18785 0.48618,0.90402 0.72927,1.884 0.72928,2.93993 -10e-6,1.06355 -0.2431,2.05112 -0.72928,2.96273 -0.47861,0.90401 -1.14712,1.6257 -2.00554,2.16506 -0.85084,0.53937 -1.79283,0.80905 -2.82598,0.80905 -0.67611,0 -1.35982,-0.17472 -2.05111,-0.52417 -0.68371,-0.35705 -1.26866,-0.81665 -1.75484,-1.37881 m 0,-4.03386 c -10e-6,1.1851 0.37603,2.18786 1.12811,3.00831 0.75967,0.81285 1.65228,1.21927 2.67784,1.21927 1.01036,0 1.89538,-0.41022 2.65506,-1.23067 0.75966,-0.82044 1.1395,-1.81941 1.13951,-2.99691 -10e-6,-1.17748 -0.37985,-2.17645 -1.13951,-2.9969 -0.75968,-0.82804 -1.6447,-1.24206 -2.65506,-1.24207 -1.02556,1e-5 -1.91817,0.41403 -2.67784,1.24207 -0.75208,0.82045 -1.12812,1.81942 -1.12811,2.9969"
           style="font-weight:bold;fill:#24221c;-inkscape-font-specification:Sawasdee Bold"
           id="path3426"
           inkscape:connector-curvature="0" />
        <path
           d="m 631.5789,282.67382 7.23588,0 c -0.24311,-0.86601 -0.70271,-1.56871 -1.37881,-2.10809 -0.66852,-0.53935 -1.41299,-0.80904 -2.23343,-0.80905 -0.80526,10e-6 -1.54594,0.2697 -2.22204,0.80905 -0.66852,0.53938 -1.13572,1.24208 -1.4016,2.10809 m -0.20511,1.68648 c 0.0912,1.09393 0.50518,2.00553 1.24206,2.73482 0.73688,0.72169 1.58391,1.08253 2.54111,1.08253 0.75206,0 1.45096,-0.18992 2.09669,-0.56975 0.64571,-0.38743 1.18888,-0.95339 1.6295,-1.69787 l 1.54973,0.83184 c -0.29628,0.52418 -0.64193,0.98757 -1.03695,1.3902 -0.39504,0.39503 -0.77868,0.7027 -1.15091,0.923 -0.37224,0.22031 -0.76348,0.39883 -1.17369,0.53557 -0.41023,0.13674 -0.76348,0.2241 -1.05974,0.26209 -0.28868,0.038 -0.57356,0.057 -0.85463,0.057 -1.03316,0 -1.97895,-0.26968 -2.83738,-0.80905 -0.85843,-0.53936 -1.53074,-1.26105 -2.01693,-2.16506 -0.47859,-0.91161 -0.71789,-1.89918 -0.71789,-2.96273 0,-1.05593 0.24689,-2.03591 0.74068,-2.93993 0.49379,-0.9116 1.17369,-1.64088 2.03972,-2.18785 0.86602,-0.54696 1.81181,-0.82044 2.83738,-0.82045 0.97997,1e-5 1.88398,0.2469 2.71203,0.74068 0.82803,0.4938 1.49274,1.15851 1.99414,1.99414 0.50137,0.82805 0.79384,1.73586 0.87742,2.72343 l 0.0456,0.87742 -9.45792,0"
           style="font-weight:bold;fill:#24221c;-inkscape-font-specification:Sawasdee Bold"
           id="path3428"
           inkscape:connector-curvature="0" />
        <path
           d="m 645.40114,289.73878 -1.81182,0 0,-9.83396 -0.99137,0 0,-1.69787 0.99137,0 0,-2.5525 1.81182,0 0,2.5525 3.29318,0 -0.60394,1.69787 -2.68924,0 0,9.83396"
           style="font-weight:bold;fill:#24221c;-inkscape-font-specification:Sawasdee Bold"
           id="path3430"
           inkscape:connector-curvature="0" />
        <path
           d="m 659.25756,289.76157 -1.98275,0 c -0.25829,-0.57735 -0.36845,-1.10533 -0.33045,-1.58392 -1.1851,1.18509 -2.48414,1.77763 -3.89712,1.77763 -0.66852,0 -1.26486,-0.10255 -1.78903,-0.30766 -0.52418,-0.20512 -0.942,-0.4748 -1.25346,-0.80906 -0.30387,-0.33425 -0.53557,-0.6913 -0.6951,-1.07113 -0.15193,-0.38743 -0.2279,-0.77866 -0.2279,-1.1737 0,-0.41022 0.0646,-0.78246 0.19372,-1.11672 0.12914,-0.34184 0.29247,-0.63432 0.48998,-0.87742 0.19752,-0.25068 0.4596,-0.47099 0.78626,-0.66091 0.32666,-0.19751 0.63813,-0.35704 0.9344,-0.4786 0.30387,-0.12154 0.67231,-0.22789 1.10532,-0.31906 0.44061,-0.0912 0.81665,-0.15572 1.12812,-0.19371 0.31905,-0.0456 0.71029,-0.0798 1.17369,-0.10256 0.46339,-0.0228 0.81664,-0.0342 1.05974,-0.0342 0.24309,-0.008 0.56215,-0.0114 0.95719,-0.0114 -0.10636,-0.94958 -0.45581,-1.70166 -1.04835,-2.25623 -0.58495,-0.55455 -1.24587,-0.83183 -1.98274,-0.83184 -0.18233,1e-5 -0.35705,0.0152 -0.52417,0.0456 -0.16714,0.0304 -0.32287,0.076 -0.4672,0.13674 -0.14435,0.0608 -0.27729,0.12156 -0.39883,0.18232 -0.12155,0.0608 -0.2431,0.14055 -0.36464,0.2393 -0.11396,0.0988 -0.21272,0.18233 -0.29628,0.25069 -0.076,0.0608 -0.15953,0.14815 -0.25069,0.26209 -0.0912,0.10636 -0.15573,0.18613 -0.19371,0.2393 -0.038,0.0456 -0.0912,0.11396 -0.15954,0.20511 -0.0684,0.0912 -0.10255,0.14055 -0.10255,0.14813 l -1.48136,-0.9116 c 0.13674,-0.2051 0.25069,-0.36843 0.34185,-0.48999 0.0988,-0.12154 0.28867,-0.32665 0.56975,-0.61533 0.28868,-0.28867 0.56976,-0.52037 0.84324,-0.69511 0.28108,-0.17471 0.64572,-0.33424 1.09393,-0.47859 0.4482,-0.15192 0.9116,-0.22789 1.3902,-0.2279 0.61533,10e-6 1.20787,0.11776 1.77763,0.35325 0.57735,0.23551 1.09012,0.56976 1.53834,1.00276 0.45579,0.42543 0.82423,0.97239 1.10532,1.6409 0.28107,0.66092 0.42921,1.3902 0.44441,2.18785 l 0,3.81736 c -10e-6,0.51658 0.0494,1.03695 0.14814,1.56112 0.0987,0.51658 0.22029,0.91541 0.36464,1.19649 m -6.21032,-1.52695 c 0.74447,10e-6 1.48135,-0.23929 2.21064,-0.71789 0.72928,-0.47859 1.29144,-1.04454 1.68648,-1.69786 l 0,-1.53834 c -0.63814,0.008 -1.21169,0.0304 -1.72066,0.0684 -0.50139,0.038 -1.03696,0.10636 -1.60671,0.20511 -0.56976,0.0988 -1.04455,0.22791 -1.42438,0.38744 -0.37984,0.15953 -0.69511,0.37984 -0.94579,0.66091 -0.2507,0.28108 -0.37605,0.61154 -0.37604,0.99137 -10e-6,0.39504 0.18232,0.76727 0.54696,1.11672 0.36464,0.34945 0.90781,0.52418 1.6295,0.52417"
           style="font-weight:bold;fill:#24221c;-inkscape-font-specification:Sawasdee Bold"
           id="path3432"
           inkscape:connector-curvature="0" />
      </g>
    </g>
  </g>
</svg>
