<?xml version="1.0" encoding="UTF-8" standalone="no"?>
<!-- Created with Inkscape (http://www.inkscape.org/) -->

<svg
   xmlns:dc="http://purl.org/dc/elements/1.1/"
   xmlns:cc="http://creativecommons.org/ns#"
   xmlns:rdf="http://www.w3.org/1999/02/22-rdf-syntax-ns#"
   xmlns:svg="http://www.w3.org/2000/svg"
   xmlns="http://www.w3.org/2000/svg"
   xmlns:sodipodi="http://sodipodi.sourceforge.net/DTD/sodipodi-0.dtd"
   xmlns:inkscape="http://www.inkscape.org/namespaces/inkscape"
   width="744.09448819"
   height="1052.3622047"
   id="svg2"
   version="1.1"
   inkscape:version="0.48.2 r9819"
   sodipodi:docname="logo.svg"
   inkscape:export-filename="/home/gbort/Projects/pdf-scores.herokuapp.com/public/images/logo.png"
   inkscape:export-xdpi="33.48315"
   inkscape:export-ydpi="33.48315">
  <defs
     id="defs4" />
  <sodipodi:namedview
     id="base"
     pagecolor="#ffffff"
     bordercolor="#666666"
     borderopacity="1.0"
     inkscape:pageopacity="0.0"
     inkscape:pageshadow="2"
     inkscape:zoom="1"
     inkscape:cx="411.15996"
     inkscape:cy="713.66501"
     inkscape:document-units="px"
     inkscape:current-layer="text2993"
     showgrid="false"
     showguides="true"
     inkscape:guide-bbox="true"
     inkscape:window-width="1022"
     inkscape:window-height="580"
     inkscape:window-x="0"
     inkscape:window-y="18"
     inkscape:window-maximized="1" />
  <metadata
     id="metadata7">
    <rdf:RDF>
      <cc:Work
         rdf:about="">
        <dc:format>image/svg+xml</dc:format>
        <dc:type
           rdf:resource="http://purl.org/dc/dcmitype/StillImage" />
        <dc:title></dc:title>
      </cc:Work>
    </rdf:RDF>
  </metadata>
  <g
     inkscape:label="Layer 1"
     inkscape:groupmode="layer"
     id="layer1">
    <flowRoot
       xml:space="preserve"
       id="flowRoot2985"
       style="fill:black;stroke:none;stroke-opacity:1;stroke-width:1px;stroke-linejoin:miter;stroke-linecap:butt;fill-opacity:1;font-family:Sawasdee;font-style:normal;font-weight:normal;font-size:40px;line-height:125%;letter-spacing:0px;word-spacing:0px;-inkscape-font-specification:Sawasdee;font-stretch:normal;font-variant:normal"><flowRegion
         id="flowRegion2987"><rect
           id="rect2989"
           width="485.71429"
           height="211.42857"
           x="157.14285"
           y="369.50504" /></flowRegion><flowPara
         id="flowPara2991" /></flowRoot>    <g
       style="font-size:40px;font-style:normal;font-variant:normal;font-weight:bold;font-stretch:normal;line-height:125%;letter-spacing:-10.72999954px;word-spacing:0px;fill:#c8b7b7;fill-opacity:1;stroke:none;font-family:Dolphins;-inkscape-font-specification:Dolphins Bold"
       id="text2993">
      <rect
         style="fill:#241c1c;fill-opacity:1;fill-rule:nonzero;stroke:none"
         id="rect3006"
         width="300"
         height="300"
         x="119.093"
         y="154.36218" />
      <path
         style="font-size:144px;font-style:normal;font-variant:normal;font-weight:bold;font-stretch:normal;line-height:125%;letter-spacing:-10.72999954px;word-spacing:0px;fill:#000000;fill-opacity:1;stroke:none;font-family:Dolphins;-inkscape-font-specification:Dolphins Bold"
         d="m 170.12197,269.26022 c -0.4641,6e-5 -0.89689,0.0176 -1.30289,0.0755 -0.40609,5e-5 -0.83886,0.0728 -1.30288,0.18882 -1.27618,0.23208 -2.61094,0.71879 -4.00305,1.47283 -0.39407,0.2056 -0.82553,0.45121 -1.26512,0.71752 l -1.54835,7.21306 c -0.0145,0.0725 -0.0276,0.15848 -0.0566,0.24547 -4e-5,0.17406 -0.0364,0.35472 -0.0944,0.5287 l -0.4154,1.926 -0.49095,2.22812 -1.86935,8.45929 c -0.11604,-0.058 -0.24278,-0.11193 -0.35876,-0.16995 -0.058,-0.11598 -0.14837,-0.20634 -0.26436,-0.26435 -0.87012,-0.63804 -1.77209,-1.07082 -2.70017,-1.30288 -0.92813,-0.232 -2.09974,-0.35873 -3.54988,-0.35876 -4.93058,3e-5 -9.3865,2.36349 -13.33093,7.06199 -3.88645,4.64054 -5.81576,9.96068 -5.81576,15.99334 0,3.4804 0.77522,6.24025 2.34141,8.27047 1.56617,2.03022 3.69504,3.04006 6.36335,3.04006 0.81207,0 1.58731,-0.10786 2.34141,-0.33989 0.81208,-0.17402 1.6237,-0.40861 2.43582,-0.69864 1.27613,-0.69608 2.55695,-1.65198 3.83311,-2.87012 1.27612,-1.27613 2.66481,-2.89941 4.173,-4.87164 -3e-5,0.17402 -3e-5,0.35469 0,0.5287 -3e-5,0.17403 -3e-5,0.33581 0,0.50982 -0.058,0.17403 -0.0944,0.3547 -0.0944,0.52871 -2e-5,0.11602 -2e-5,0.22387 0,0.33988 -2e-5,1.97223 0.66736,3.61438 2.00153,4.89053 1.39214,1.27614 3.15967,1.90711 5.30595,1.90711 0.81205,0 1.62369,-0.0903 2.43582,-0.26435 0.87006,-0.11601 1.7545,-0.29667 2.62464,-0.52871 0.81206,-0.29002 1.64122,-0.63248 2.51135,-1.03852 0.87006,-0.40605 1.68169,-0.87524 2.43583,-1.3973 0.53754,-0.35149 1.01128,-0.6946 1.45393,-1.03852 0.27368,0.48989 0.56232,0.95834 0.90636,1.39729 1.68218,2.08823 3.79217,3.13447 6.34446,3.13447 0.52205,0 1.04517,-0.0728 1.56724,-0.18882 0.52204,-0.11601 1.08156,-0.26028 1.66165,-0.4343 0.81206,-0.29003 1.5873,-0.65001 2.34141,-1.11405 0.75406,-0.46406 1.45784,-1.02358 2.09593,-1.66165 0.174,-0.11602 0.31826,-0.22387 0.4343,-0.33988 0.116,-0.11601 0.22385,-0.26028 0.33988,-0.4343 0.058,-0.058 0.13082,-0.13082 0.18883,-0.18882 0.11599,-0.058 0.18746,-0.11193 0.24546,-0.16994 0.46404,-0.46406 0.96963,-1.00469 1.4917,-1.64276 0.52204,-0.69608 1.29728,-1.68839 2.34142,-2.96453 -0.058,0.40605 -0.0756,0.7849 -0.0756,1.13294 -2e-5,0.29003 -2e-5,0.57856 0,0.86858 -2e-5,2.03024 0.66736,3.70744 2.00153,5.04159 1.33412,1.27615 3.02885,1.90712 5.11712,1.90712 0.69605,0 1.39983,-0.0539 2.09594,-0.16994 0.75405,-0.11602 1.47535,-0.26028 2.17147,-0.4343 1.33411,-0.34804 2.65134,-0.87115 3.92753,-1.56723 0.57354,-0.29926 1.11209,-0.62903 1.64276,-0.98189 l -0.50983,2.28476 0.60424,0 7.57182,0 5.74023,0 3.39882,-15.8234 c 0.46403,-2.03021 1.07749,-3.50922 1.83159,-4.43735 0.75406,-0.92808 1.67355,-1.39727 2.7757,-1.39729 0.63805,2e-5 1.16117,0.19821 1.56723,0.60424 0.40603,0.40606 0.60422,0.92918 0.60424,1.56723 -2e-5,0.29006 -2e-5,0.56105 0,0.79306 -2e-5,0.17403 -0.0175,0.33583 -0.0756,0.50983 -3e-5,0.17403 -0.0364,0.3547 -0.0944,0.5287 -2e-5,0.17404 -0.0175,0.35471 -0.0756,0.52871 l -3.22888,17.12627 13.5764,0 1.13294,-6.00458 2.07706,-9.81882 c 0.46401,-2.03021 1.05993,-3.4917 1.75606,-4.36181 0.69603,-0.87008 1.57912,-1.30287 2.68128,-1.30289 0.81205,2e-5 1.4255,0.23462 1.83159,0.69865 0.406,0.40606 0.60419,1.07344 0.60424,2.00153 -5e-5,0.23205 -0.0176,0.50304 -0.0756,0.79306 -5e-5,0.29005 -0.054,0.57857 -0.16994,0.86859 l -2.09595,9.04464 c -4e-5,0.11602 -0.0365,0.22387 -0.0944,0.33988 -4e-5,0.058 -0.0176,0.14835 -0.0755,0.26435 -4e-5,0.23203 -0.0365,0.46663 -0.0944,0.69865 -4e-5,0.17402 -4e-5,0.35469 0,0.5287 -4e-5,2.08824 0.75767,3.80185 2.26588,5.136 1.56613,1.27614 3.56827,1.90711 6.00459,1.90711 0.464,0 0.93319,-0.0364 1.39729,-0.0944 0.464,-0.058 0.91431,-0.11194 1.37841,-0.16995 1.27609,-0.23202 2.53939,-0.57448 3.75759,-1.03852 1.21807,-0.52206 2.37217,-1.18944 3.47435,-2.00153 0.23197,-0.17402 0.43015,-0.31828 0.60423,-0.4343 0.0412,-0.0309 0.0742,-0.0632 0.11329,-0.0944 0.38731,0.72319 0.94043,1.38715 1.66166,2.00153 1.56616,1.27615 3.46043,1.90712 5.6647,1.90712 1.10211,0 2.25619,-0.16179 3.47435,-0.50983 1.21811,-0.29003 2.46254,-0.77675 3.7387,-1.47282 0.9861,-0.46405 1.94199,-1.02357 2.87012,-1.66165 0.92808,-0.69607 1.83005,-1.41737 2.70017,-2.17146 0.11599,1.7982 0.81977,3.22329 2.09594,4.26741 1.27611,1.04411 2.95332,1.54835 5.04159,1.54835 0.81205,0 1.6601,-0.0715 2.53023,-0.24548 0.92806,-0.11601 1.84756,-0.33308 2.7757,-0.62312 0.92807,-0.29002 1.83003,-0.63248 2.70018,-1.03852 0.41263,-0.20632 0.80087,-0.4314 1.18958,-0.66089 2.063,2.23665 5.81675,3.65124 11.25388,4.22965 10.42527,1.10907 17.8652,-3.29996 22.30004,-13.21764 l -0.45318,2.07706 c 0,0.11602 -0.0364,0.26028 -0.0944,0.4343 -1e-5,0.11602 -0.0175,0.24275 -0.0756,0.35876 0,0.29004 -0.0364,0.57856 -0.0944,0.86859 l 0,0.69864 c 0,2.08824 0.75771,3.80185 2.26588,5.136 1.56617,1.27614 3.5319,1.90711 5.91018,1.90711 0.92809,0 1.92039,-0.12673 2.96452,-0.35876 1.0441,-0.23203 2.10786,-0.53807 3.21,-0.94411 0.63805,-0.29004 1.2879,-0.61497 1.926,-0.963 0.69605,-0.34804 1.36343,-0.7269 2.00153,-1.13295 0.38545,-0.24091 0.71421,-0.47661 1.01964,-0.71752 0.25798,0.46367 0.5469,0.90815 0.86859,1.32176 1.68218,2.08824 3.75577,3.13447 6.25006,3.13447 0.46404,0 0.93322,-0.0175 1.39729,-0.0756 0.46404,-0.058 0.93322,-0.18474 1.3973,-0.35875 1.27612,-0.40605 2.61088,-1.12736 4.00305,-2.17147 1.39214,-1.10213 2.92508,-2.63508 4.60729,-4.6073 l -5.47588,23.14975 0.26435,0.0756 13.82187,-0.0756 1.30289,-5.6647 c 1.14001,-4.7885 2.03451,-8.56261 2.75682,-11.63152 1.61423,0.59654 3.03791,1.03222 4.26741,1.32176 1.64758,0.36568 3.1588,0.50003 4.53176,0.43429 0.64064,-0.0394 1.25475,-0.10884 1.86935,-0.22658 0.61446,-0.11788 1.24173,-0.28157 1.86935,-0.49094 2.54946,-0.85057 4.42302,-2.35509 5.6647,-4.51289 1.25464,-2.11855 1.5258,-4.28014 0.79306,-6.47664 -0.0393,-0.11766 -0.0741,-0.24107 -0.11329,-0.35876 -0.0262,-0.0785 -0.0727,-0.15973 -0.15106,-0.26435 -0.73273,-1.67348 -1.96746,-3.04461 -3.71982,-4.11636 -1.52194,-0.90344 -2.97941,-1.3216 -4.34294,-1.24623 -0.19479,0.0108 -0.37525,0.0256 -0.56647,0.0566 l -0.41544,0.1322 c -0.13082,2e-5 -0.25998,0.0362 -0.37765,0.0756 -0.70606,0.23556 -1.1345,0.53293 -1.26512,0.92523 -0.0784,0.41847 0.0736,1.20394 0.45318,2.34142 0.3271,0.98058 0.22789,1.90095 -0.321,2.73793 -0.50978,0.82389 -1.33616,1.41434 -2.47358,1.79382 -1.08448,0.3618 -2.3783,0.43814 -3.90865,0.22659 2.32326,-10.10018 0.0608,-1.16136 4.85276,-20.39293 0.058,-0.29 0.0944,-0.52459 0.0944,-0.69864 -5e-5,-0.232 -5e-5,-0.46659 0,-0.69865 -0.0581,-1.04408 -0.4369,-1.89213 -1.13295,-2.53023 -0.69611,-0.69605 -1.54416,-1.0385 -2.53023,-1.03853 -0.23206,3e-5 -0.48418,0.0365 -0.77417,0.0944 -0.23207,3e-5 -0.50306,0.0175 -0.79306,0.0755 -1.04415,0.17405 -2.09039,0.55291 -3.13447,1.13294 -1.04415,0.58009 -2.14431,1.37422 -3.30441,2.36029 -1.10215,-1.33412 -2.31017,-2.29001 -3.64429,-2.87011 -1.27617,-0.63804 -2.79159,-0.96297 -4.53177,-0.963 -5.04658,3e-5 -9.59148,2.38101 -13.65193,7.13752 -4.00245,4.75656 -6.00458,10.11309 -6.00458,16.08776 0,0.56968 0.029,1.12854 0.0755,1.66164 -0.0473,0 -0.0848,10e-6 -0.15106,0 -0.058,10e-6 -0.12948,10e-6 -0.24547,0 -0.81212,10e-6 -1.46197,-0.27099 -1.926,-0.79306 -0.46407,-0.58006 -0.69866,-1.31888 -0.69865,-2.24699 -10e-6,-0.17401 -10e-6,-0.4086 0,-0.69865 0.058,-0.29002 0.13082,-0.57855 0.18883,-0.86859 0.058,-0.116 0.0755,-0.24274 0.0755,-0.35877 0.058,-0.11599 0.0944,-0.22385 0.0944,-0.33988 l 2.94565,-13.84075 c 0.11601,-0.29001 0.18879,-0.57853 0.18882,-0.86859 -3e-5,-0.34801 -3e-5,-0.67293 0,-0.963 -0.028,-0.61563 -0.16066,-1.16212 -0.37765,-1.64276 1.68378,-0.64536 3.09983,-1.61524 4.22964,-2.92677 1.71051,-1.98227 2.37058,-4.28318 1.98265,-6.89205 -0.23895,-1.60707 -0.99723,-2.88834 -2.247,-3.83311 -1.24664,-0.92394 -2.67923,-1.25862 -4.28629,-1.01965 l -0.15106,0.0189 -0.18882,0.0189 c -1.15634,0.25727 -2.16774,0.82307 -3.04006,1.69942 -0.89316,0.87944 -1.32591,1.77218 -1.30288,2.64353 -0.0146,0.0449 -0.006,0.0716 0,0.11329 0.006,0.0417 0.0127,0.0904 0.0189,0.13217 0.0341,0.22957 0.13432,0.40431 0.30212,0.52871 0.15005,0.14835 0.31802,0.22297 0.54758,0.18882 0.0835,-0.0124 0.18398,-0.0611 0.26436,-0.0944 0.0804,-0.0333 0.13447,-0.0652 0.16994,-0.11329 0.28204,-0.25527 0.49255,-0.4404 0.62311,-0.56647 0.13378,-0.10513 0.25555,-0.1682 0.37765,-0.20771 0.0386,-0.0272 0.0885,-0.0471 0.15106,-0.0566 0.0626,-0.009 0.14113,-0.0222 0.24547,-0.0377 0,-10e-6 0.017,0.004 0.0378,0 -10e-6,-10e-6 0.017,-0.0159 0.0377,-0.0189 0.45917,-0.0683 0.87843,0.0536 1.26512,0.35876 0.38667,0.30517 0.60527,0.70758 0.67976,1.20847 0.0962,0.64699 -0.0732,1.23508 -0.54758,1.77494 -0.49213,0.5638 -1.11998,0.91101 -1.85047,1.01965 -0.98091,0.14584 -1.83635,-0.10104 -2.568,-0.71754 -0.75252,-0.61339 -1.21392,-1.46184 -1.37841,-2.56799 -0.0838,-0.56352 -0.0632,-1.16263 0.0377,-1.77494 0.10096,-0.61232 0.30079,-1.2598 0.60423,-1.94488 0.0325,-0.0688 0.062,-0.13893 0.0944,-0.2077 0.0325,-0.0689 0.0641,-0.12312 0.0755,-0.18883 0.13283,-0.25443 0.26062,-0.50288 0.39653,-0.73641 0.1182,-0.20954 0.2724,-0.42314 0.45317,-0.642 2.0181,-2.81284 4.13504,-6.15314 -0.41541,-4.77723 -2.46665,0.74412 -5.61839,3.54722 -7.21305,6.43887 -1.11902,2.08631 -1.50247,4.32593 -1.15182,6.68435 0.35045,2.35665 1.4221,4.17092 3.19112,5.49477 -1.81678,0.81271 -3.68749,2.01521 -5.60806,3.60652 0.63807,0.34806 1.10725,0.78085 1.39729,1.30289 0.34803,0.46407 0.5287,1.02359 0.52871,1.66164 -10e-6,0.40607 -0.0364,0.83885 -0.0944,1.30288 -0.058,0.40607 -0.14834,0.89278 -0.26435,1.47282 l -1.1707,5.457 -0.0566,-0.15106 -0.50982,-2.43582 c -0.0581,-0.11599 -0.0581,-0.22385 0,-0.33989 l -0.26436,-0.69864 -0.16994,-0.16994 -1.05741,-2.26588 -0.24547,-0.35877 -0.18882,-0.33988 -0.43429,-0.69864 c -0.17406,-0.23201 -0.31832,-0.4302 -0.4343,-0.60424 -0.0581,-0.11601 -0.11199,-0.16992 -0.16994,-0.16994 l -0.26435,-0.35877 -0.16994,-0.16994 -0.16994,-0.26435 0,-0.16994 -0.35877,-0.16994 0,-0.16995 -1.20847,-1.22735 0.16994,-0.16994 0.16995,-0.35876 1.30287,-1.64276 c 0.232,-0.40602 0.50299,-0.8388 0.79306,-1.30289 l 0.0944,-0.35876 0.60423,-1.13294 0,-0.16994 0.16994,-0.33988 0.0944,-0.16995 0,-0.963 -0.52871,-1.13293 c -0.29006,-0.17399 -0.66892,-0.3007 -1.13293,-0.35877 l -0.26436,0 -0.33987,0.0944 -2.87013,0.5287 c -9.28107,4.75657 -15.28745,8.67049 -18.01374,11.74482 -2.66832,3.01636 -4.0934,4.69356 -4.26741,5.04158 l 2.60576,-0.52871 c 0.17401,-0.058 0.30076,-0.058 0.35876,0 l 0.77418,-0.16994 2.43582,-0.26435 0.52871,-0.0755 0.86858,-0.0944 0.52871,-0.0756 0.43429,0 1.30288,0 3.13447,-3.56875 0.33989,-0.35877 0.26435,-0.43429 -0.16995,0.79306 c -0.058,0.23204 -0.0944,0.39383 -0.0944,0.50981 l -0.0756,0.26436 -0.18882,1.03853 c -0.058,0.23205 -0.0217,0.46664 0.0944,0.69864 l -0.0944,0.35877 c 0.058,0.34806 0.14831,0.63658 0.26436,0.86859 4.87252,0.87011 7.54203,2.81832 8.00611,5.83464 -6.26474,-3.30635 -12.79424,-3.9562 -19.58099,-1.926 l -0.86859,0.35877 -1.64277,0.67976 c -0.11601,0.058 -0.15241,0.13082 -0.0944,0.18883 l -0.33989,0.24546 -2.26588,1.13295 -0.26435,0.18882 -1.39729,0.94412 -0.0756,0.0944 -0.35876,0.33988 -0.77418,0.79306 c -0.16469,0.48335 -0.32131,0.93936 -0.43429,1.39729 -0.29467,-0.45138 -0.45321,-0.96701 -0.45318,-1.56723 -4e-5,-0.23202 0.0364,-0.59335 0.0944,-1.05741 0.11597,-0.52205 0.22382,-1.06269 0.33988,-1.64277 l 2.96452,-13.67081 c -4e-5,-0.11599 -4e-5,-0.22385 0,-0.33988 0.058,-0.11599 0.0944,-0.24273 0.0944,-0.35877 0.058,-0.11598 0.0755,-0.22384 0.0756,-0.33988 -5e-5,-0.11598 -5e-5,-0.22384 0,-0.33989 -5e-5,-1.39212 -0.45035,-2.51116 -1.37841,-3.32328 -0.87014,-0.81207 -2.06064,-1.20844 -3.56877,-1.20847 -0.29006,3e-5 -0.57858,0.0365 -0.86858,0.0944 -0.29007,2e-5 -0.59747,2e-5 -0.88747,0 -1.56621,0.23206 -3.15308,0.73628 -4.77723,1.54835 -0.47117,0.23559 -0.95858,0.51625 -1.45394,0.81194 l -1.62389,6.9487 c -0.0269,0.20334 -0.0639,0.39931 -0.13217,0.60424 l -0.0189,0.0377 -0.0755,0.35876 0,0.0378 -0.77418,3.26664 -0.69864,3.0023 c -0.46408,1.85622 -1.07752,3.2085 -1.83159,4.07858 -0.75411,0.81211 -1.74641,1.22737 -2.96453,1.22735 -0.6961,2e-5 -1.27314,-0.19817 -1.73717,-0.60423 -0.40606,-0.40603 -0.60425,-0.96555 -0.60424,-1.66165 -1e-5,-0.17401 0.0175,-0.4086 0.0756,-0.69864 0.058,-0.34803 0.13081,-0.69048 0.18882,-1.03853 l 2.51135,-12.10358 c -2e-5,-0.058 -2e-5,-0.0755 0,-0.0756 0.058,-0.058 0.0944,-0.13082 0.0944,-0.18882 -3e-5,-0.116 -3e-5,-0.22385 0,-0.33989 -3e-5,-0.11599 -3e-5,-0.29665 0,-0.52871 -3e-5,-1.50813 -0.46921,-2.66223 -1.39729,-3.47435 -0.87012,-0.87006 -2.07814,-1.30284 -3.64429,-1.30287 -1.16015,3e-5 -2.44098,0.23462 -3.83311,0.69864 -1.39218,0.46408 -2.78086,1.09506 -4.173,1.90712 -0.0152,0.01 -0.0226,0.0281 -0.0378,0.0377 l -2.64352,12.27352 -2.0393,9.81882 c -0.0959,0.0345 -0.19015,0.0567 -0.28323,0.0566 -0.17408,0.058 -0.35475,0.0944 -0.52871,0.0944 -0.11607,0 -0.22393,0 -0.33988,0 -0.69614,0 -1.30959,-0.271 -1.83159,-0.79306 -0.46411,-0.52205 -0.69871,-1.15303 -0.69864,-1.90712 -7e-5,-0.17401 0.0364,-0.42612 0.0944,-0.77418 0.058,-0.34802 0.11187,-0.70936 0.16994,-1.05741 -6e-5,-0.058 -6e-5,-0.11193 0,-0.16994 0.058,-0.058 0.0944,-0.11193 0.0944,-0.16994 l 2.34141,-11.14058 c 0.058,-0.11599 0.0943,-0.22384 0.0944,-0.33989 -7e-5,-0.17399 0.0174,-0.33713 0.0755,-0.45317 -5e-5,-0.232 -5e-5,-0.44772 0,-0.67976 0.058,-0.29001 0.0944,-0.57853 0.0944,-0.86859 -7e-5,-2.0302 -0.75777,-3.68989 -2.26589,-4.96605 -1.45022,-1.27612 -3.32561,-1.9071 -5.64582,-1.90712 -0.87015,2e-5 -1.73571,0.0715 -2.60576,0.24547 -0.81214,0.11604 -1.64266,0.33311 -2.4547,0.62311 -1.16018,0.40608 -2.3318,0.94672 -3.54989,1.64277 -1.16017,0.69611 -2.38706,1.56168 -3.66317,2.60576 -0.46409,-1.68215 -1.36606,-2.94411 -2.70017,-3.81423 -1.27618,-0.92807 -2.91698,-1.39726 -4.94717,-1.39729 -0.63811,3e-5 -1.28796,0.0364 -1.926,0.0944 -0.5801,0.058 -1.15715,0.16589 -1.73718,0.33988 -1.16016,0.34807 -2.38706,0.88871 -3.66317,1.64276 -1.27617,0.75412 -2.75518,1.80035 -4.43735,3.13447 -0.058,-1.62415 -0.50834,-2.86857 -1.37841,-3.7387 -0.87012,-0.87007 -2.06061,-1.30285 -3.56876,-1.30288 -0.92813,3e-5 -1.88403,0.12676 -2.87012,0.35876 -0.98613,0.17405 -1.97843,0.4801 -2.96453,0.94412 -0.87795,0.34145 -1.73108,0.77855 -2.568,1.284 l -1.605,7.42076 c -0.005,0.0307 0.005,0.0637 0,0.0944 l -0.0189,0.0566 -0.0756,0.321 c -6e-4,0.0192 0,0.0367 0,0.0566 0,0.17404 -0.0175,0.33582 -0.0755,0.50981 l -1.85047,8.45929 -0.0755,0.321 -1.0763,4.89053 c -0.0784,0.0272 -0.14446,0.0447 -0.22658,0.0755 -0.11606,0.058 -0.2428,0.13082 -0.35877,0.18883 -0.058,0 -0.14838,0 -0.26435,0 -0.17406,0.058 -0.37225,0.11193 -0.60423,0.16994 -0.17407,0 -0.37226,0 -0.60424,0 -0.69612,0 -1.30956,-0.23459 -1.83158,-0.69865 -0.52211,-0.52205 -0.75672,-1.08157 -0.69866,-1.66165 -3e-5,-0.29002 0.0363,-0.64999 0.0944,-1.11406 0.11598,-0.52204 0.26024,-1.17189 0.43429,-1.92599 l 3.20994,-14.4449 c 0.11595,-0.34802 0.18878,-0.65406 0.18882,-0.94412 0.058,-0.29 0.0755,-0.5246 0.0756,-0.69865 -5e-5,-0.98608 -0.3425,-1.78019 -1.03853,-2.36029 -0.69612,-0.63804 -1.6345,-0.94409 -2.79459,-0.94411 -0.29007,2e-5 -0.57859,0.0176 -0.86859,0.0755 -0.29007,3e-5 -0.54218,0.0365 -0.77418,0.0944 -0.81212,0.17405 -1.67769,0.51649 -2.60576,1.03852 -0.87012,0.46409 -2.09703,1.23932 -3.66317,2.34142 -1.10216,-1.27612 -2.38299,-2.19561 -3.83312,-2.77571 -1.39218,-0.63804 -2.92513,-0.96297 -4.60729,-0.963 -4.81456,3e-5 -9.21519,2.41742 -13.21764,7.23194 -3.94445,4.75655 -5.92905,10.05917 -5.92905,15.91781 0,0.55389 0.0299,1.08412 0.0755,1.605 -0.0576,0.0138 -0.11332,0.0377 -0.16994,0.0566 -0.11605,10e-6 -0.27784,10e-6 -0.50983,0 -0.69612,10e-6 -1.27316,-0.23458 -1.73717,-0.69864 -0.46409,-0.52206 -0.69868,-1.17191 -0.69865,-1.926 -3e-5,-0.23201 -3e-5,-0.52054 0,-0.86859 0.058,-0.34803 0.11188,-0.69047 0.16995,-1.03852 0.058,-0.058 0.0944,-0.14834 0.0944,-0.26436 0.058,-0.116 0.0755,-0.20634 0.0756,-0.26435 l 7.66623,-34.63021 c 0.058,-0.11597 0.0755,-0.18741 0.0755,-0.24548 -4e-5,-0.11596 0.0363,-0.2427 0.0944,-0.35876 -5e-5,-0.11597 -5e-5,-0.22382 0,-0.33988 -5e-5,-0.11597 -5e-5,-0.26023 0,-0.43429 -5e-5,-1.50812 -0.46924,-2.6811 -1.39729,-3.49324 -0.92815,-0.81204 -2.2265,-1.20841 -3.90865,-1.20847 z m 207.12038,25.49116 c -2e-5,2e-5 0.0175,0.0364 0.0756,0.0944 0.11599,3e-5 0.24273,3e-5 0.35877,0 0.63804,0.23206 1.03443,0.97088 1.20847,2.247 0.232,1.27617 0.21448,2.97225 -0.0755,5.06047 -0.52208,3.65443 -1.37013,6.84705 -2.53023,9.57334 -1.10215,2.72632 -2.11198,3.98826 -3.04006,3.81424 -0.6961,-0.058 -1.16529,-0.74291 -1.39729,-2.07706 -0.23205,-1.39215 -0.21453,-3.14217 0.0755,-5.23041 -1e-5,-0.17401 -1e-5,-0.28188 0,-0.33989 0.058,-0.058 0.0944,-0.14832 0.0944,-0.26435 0.46403,-3.13233 1.22174,-5.9461 2.26588,-8.4404 1.1021,-2.55226 2.0944,-4.03128 2.96452,-4.43735 z m -186.50087,0.52871 c -2e-5,2e-5 0.0364,0.0175 0.0944,0.0755 0.11599,3e-5 0.22385,3e-5 0.33989,0 0.63804,0.23206 1.0533,0.98976 1.22735,2.26588 0.232,1.27617 0.1956,2.95338 -0.0944,5.04159 -0.52208,3.65443 -1.35124,6.84705 -2.51135,9.57334 -1.10214,2.72632 -2.13085,4.00715 -3.05894,3.83312 -0.69609,-0.058 -1.1464,-0.76178 -1.37841,-2.09594 -0.23204,-1.39214 -0.21452,-3.12328 0.0755,-5.21152 -2e-5,-0.17401 -2e-5,-0.30076 0,-0.35877 0.058,-0.058 0.0944,-0.12944 0.0944,-0.24547 0.46403,-3.13233 1.22175,-5.9461 2.26589,-8.4404 1.1021,-2.55227 2.07552,-4.03129 2.94564,-4.43735 z m -37.16045,0.67976 c -2e-5,2e-5 0.0364,0.0364 0.0944,0.0944 0.058,2e-5 0.14832,2e-5 0.26435,0 0.46402,0.17405 0.77007,0.78749 0.94412,1.83159 0.17399,0.98613 0.15646,2.28448 -0.0756,3.90864 -0.40607,2.90035 -1.07344,5.462 -2.00153,7.66623 -0.87012,2.14626 -1.68176,3.11968 -2.43582,2.94565 -0.52207,10e-6 -0.90093,-0.54063 -1.13293,-1.64277 -0.17405,-1.10211 -0.13764,-2.47327 0.0944,-4.09747 -3e-5,-0.174 -3e-5,-0.26433 0,-0.26435 0.058,-0.058 0.0755,-0.12944 0.0755,-0.24547 0.40603,-2.49426 1.01947,-4.73098 1.83159,-6.70323 0.87008,-1.9722 1.64531,-3.14517 2.34141,-3.49323 z m 170.05436,15.69122 c 1.44109,0.0226 2.72811,0.3059 3.852,0.8497 -0.87012,1.68221 -2.457,2.81877 -4.77723,3.39883 -2.72633,0.8121 -4.62061,0.48717 -5.6647,-0.963 -0.29005,-0.63807 -0.32646,-1.25152 -0.0944,-1.83159 l 0.18882,-0.0756 0.86859,-0.35876 0.50983,-0.0756 2.36029,-0.69864 c 0.97884,-0.17402 1.89216,-0.25907 2.75682,-0.24547 z"
         id="path2998-0"
         inkscape:connector-curvature="0"
         inkscape:export-filename="/home/gbort/Projects/pdf-scores.herokuapp.com/public/images/path2998-0-2.png"
         inkscape:export-xdpi="33.48315"
         inkscape:export-ydpi="33.48315" />
      <path
         style="font-size:144px;font-style:normal;font-variant:normal;font-weight:bold;font-stretch:normal;line-height:125%;letter-spacing:-10.72999954px;word-spacing:0px;fill:#e3e2db;fill-opacity:1;stroke:none;font-family:Dolphins;-inkscape-font-specification:Dolphins Bold"
         d="m 169.51312,267.77601 c -0.46409,6e-5 -0.89688,0.0176 -1.30288,0.0756 -0.40609,4e-5 -0.83886,0.0728 -1.30289,0.18881 -1.27617,0.23208 -2.61093,0.7188 -4.00305,1.47283 -0.39406,0.2056 -0.82552,0.45121 -1.26512,0.71753 l -1.54835,7.21305 c -0.0145,0.0725 -0.0276,0.15849 -0.0566,0.24548 -3e-5,0.17405 -0.0364,0.35472 -0.0944,0.5287 l -0.41541,1.926 -0.49094,2.22811 -1.86935,8.45929 c -0.11605,-0.058 -0.24278,-0.11193 -0.35877,-0.16994 -0.058,-0.11598 -0.14836,-0.20635 -0.26435,-0.26435 -0.87013,-0.63804 -1.77209,-1.07083 -2.70018,-1.30289 -0.92812,-0.23199 -2.09974,-0.35873 -3.54988,-0.35875 -4.93057,2e-5 -9.3865,2.36349 -13.33093,7.06199 -3.88644,4.64054 -5.81576,9.96068 -5.81576,15.99334 0,3.4804 0.77523,6.24024 2.34141,8.27047 1.56617,2.03022 3.69505,3.04005 6.36335,3.04005 0.81208,0 1.58731,-0.10786 2.34141,-0.33988 0.81208,-0.17402 1.62371,-0.40862 2.43582,-0.69865 1.27613,-0.69607 2.55695,-1.65198 3.83311,-2.87012 1.27613,-1.27613 2.66481,-2.89941 4.173,-4.87164 -2e-5,0.17403 -2e-5,0.3547 0,0.52871 -2e-5,0.17402 -2e-5,0.3358 0,0.50982 -0.058,0.17403 -0.0944,0.35469 -0.0944,0.52871 -3e-5,0.11602 -3e-5,0.22387 0,0.33988 -3e-5,1.97222 0.66734,3.61438 2.00152,4.89053 1.39213,1.27614 3.15967,1.90711 5.30594,1.90711 0.81206,0 1.62369,-0.0903 2.43582,-0.26435 0.87007,-0.11601 1.75451,-0.29668 2.62464,-0.52871 0.81206,-0.29003 1.64122,-0.63248 2.51136,-1.03853 0.87005,-0.40604 1.68169,-0.87523 2.43582,-1.39729 0.53755,-0.35149 1.01129,-0.69461 1.45394,-1.03853 0.27367,0.4899 0.56231,0.95835 0.90636,1.3973 1.68217,2.08823 3.79217,3.13446 6.34445,3.13446 0.52206,0 1.04517,-0.0728 1.56724,-0.18882 0.52205,-0.11601 1.08157,-0.26028 1.66165,-0.43429 0.81208,-0.29003 1.5873,-0.65001 2.34141,-1.11406 0.75407,-0.46406 1.45785,-1.02357 2.09593,-1.66164 0.17401,-0.11602 0.31827,-0.22388 0.4343,-0.33989 0.116,-0.11601 0.22386,-0.26028 0.33988,-0.43429 0.058,-0.058 0.13082,-0.13082 0.18883,-0.18883 0.116,-0.058 0.18746,-0.11193 0.24547,-0.16994 0.46403,-0.46405 0.96962,-1.00468 1.4917,-1.64276 0.52204,-0.69607 1.29727,-1.68838 2.34141,-2.96453 -0.058,0.40605 -0.0756,0.78491 -0.0756,1.13295 -3e-5,0.29003 -3e-5,0.57855 0,0.86858 -3e-5,2.03023 0.66735,3.70743 2.00153,5.04158 1.33412,1.27615 3.02885,1.90712 5.11711,1.90712 0.69605,0 1.39984,-0.0539 2.09595,-0.16994 0.75404,-0.11601 1.47535,-0.26028 2.17147,-0.43429 1.33411,-0.34805 2.65134,-0.87116 3.92752,-1.56724 0.57354,-0.29925 1.11209,-0.62903 1.64276,-0.98188 l -0.50982,2.28476 0.60424,0 7.57181,0 5.74023,0 3.39883,-15.8234 c 0.46403,-2.03021 1.07748,-3.50922 1.83158,-4.43735 0.75406,-0.92808 1.67356,-1.39727 2.77571,-1.39729 0.63805,2e-5 1.16116,0.1982 1.56723,0.60424 0.40602,0.40606 0.60421,0.92918 0.60424,1.56722 -3e-5,0.29006 -3e-5,0.56106 0,0.79306 -3e-5,0.17404 -0.0175,0.33583 -0.0756,0.50983 -2e-5,0.17404 -0.0364,0.3547 -0.0944,0.5287 -3e-5,0.17405 -0.0175,0.35471 -0.0756,0.52871 l -3.22888,17.12628 13.5764,0 1.13294,-6.00458 2.07707,-9.81882 c 0.464,-2.03021 1.05993,-3.4917 1.75605,-4.36182 0.69604,-0.87008 1.57913,-1.30286 2.68129,-1.30288 0.81205,2e-5 1.4255,0.23461 1.83159,0.69865 0.406,0.40606 0.60418,1.07344 0.60424,2.00153 -6e-5,0.23204 -0.0176,0.50303 -0.0756,0.79306 -5e-5,0.29004 -0.054,0.57857 -0.16994,0.86858 l -2.09594,9.04464 c -4e-5,0.11602 -0.0365,0.22388 -0.0944,0.33989 -4e-5,0.058 -0.0176,0.14834 -0.0755,0.26435 -4e-5,0.23203 -0.0365,0.46662 -0.0944,0.69865 -4e-5,0.17402 -4e-5,0.35468 0,0.5287 -4e-5,2.08824 0.75767,3.80185 2.26588,5.136 1.56612,1.27614 3.56826,1.90711 6.00459,1.90711 0.464,0 0.93318,-0.0364 1.39729,-0.0944 0.464,-0.058 0.9143,-0.11193 1.37841,-0.16994 1.27609,-0.23202 2.5394,-0.57448 3.75758,-1.03853 1.21808,-0.52206 2.37217,-1.18943 3.47436,-2.00153 0.23196,-0.17402 0.43015,-0.31828 0.60423,-0.43429 0.0412,-0.0309 0.0742,-0.0632 0.11329,-0.0944 0.3873,0.72319 0.94042,1.38716 1.66165,2.00153 1.56617,1.27615 3.46044,1.90712 5.6647,1.90712 1.10211,0 2.2562,-0.16178 3.47435,-0.50982 1.21812,-0.29004 2.46254,-0.77675 3.7387,-1.47282 0.9861,-0.46406 1.94199,-1.02358 2.87012,-1.66165 0.92808,-0.69608 1.83005,-1.41738 2.70018,-2.17147 0.11599,1.7982 0.81976,3.22329 2.09593,4.26741 1.27612,1.04412 2.95333,1.54835 5.04159,1.54835 0.81205,0 1.6601,-0.0715 2.53023,-0.24547 0.92807,-0.11601 1.84757,-0.33309 2.77571,-0.62312 0.92807,-0.29003 1.83003,-0.63248 2.70017,-1.03853 0.41263,-0.20632 0.80087,-0.43139 1.18959,-0.66088 2.06299,2.23664 5.81675,3.65123 11.25387,4.22965 10.42528,1.10907 17.86521,-3.29997 22.30005,-13.21764 l -0.45318,2.07706 c 0,0.11601 -0.0364,0.26028 -0.0944,0.43429 0,0.11602 -0.0175,0.24276 -0.0756,0.35876 -1e-5,0.29004 -0.0364,0.57857 -0.0944,0.8686 l 0,0.69864 c 0,2.08824 0.75771,3.80185 2.26589,5.136 1.56616,1.27614 3.53189,1.90711 5.91017,1.90711 0.92809,0 1.92039,-0.12674 2.96453,-0.35876 1.04409,-0.23203 2.10786,-0.53807 3.21,-0.94412 0.63805,-0.29003 1.2879,-0.61496 1.92599,-0.963 0.69606,-0.34803 1.36344,-0.7269 2.00153,-1.13294 0.38545,-0.24091 0.71422,-0.47661 1.01965,-0.71753 0.25798,0.46367 0.54689,0.90815 0.86859,1.32176 1.68218,2.08824 3.75576,3.13447 6.25005,3.13447 0.46405,0 0.93323,-0.0175 1.39729,-0.0755 0.46404,-0.058 0.93323,-0.18474 1.3973,-0.35876 1.27613,-0.40604 2.61089,-1.12735 4.00305,-2.17147 1.39214,-1.10213 2.92509,-2.63507 4.60729,-4.60729 l -5.47587,23.14975 0.26435,0.0755 13.82187,-0.0755 1.30288,-5.6647 c 1.14002,-4.7885 2.03452,-8.56261 2.75682,-11.63152 1.61424,0.59653 3.03791,1.03221 4.26742,1.32176 1.64757,0.36568 3.1588,0.50002 4.53175,0.43429 0.64065,-0.0394 1.25476,-0.10883 1.86936,-0.22658 0.61446,-0.11788 1.24173,-0.28157 1.86935,-0.49095 2.54946,-0.85057 4.42302,-2.35509 5.6647,-4.51288 1.25463,-2.11855 1.52579,-4.28014 0.79306,-6.47664 -0.0393,-0.11767 -0.0741,-0.24108 -0.1133,-0.35876 -0.0261,-0.0784 -0.0727,-0.15973 -0.15106,-0.26435 -0.73272,-1.67348 -1.96746,-3.04461 -3.71981,-4.11635 -1.52195,-0.90345 -2.97942,-1.32161 -4.34294,-1.24624 -0.19479,0.0107 -0.37526,0.0256 -0.56647,0.0566 l -0.41545,0.13221 c -0.13081,0 -0.25998,0.0362 -0.37764,0.0755 -0.70607,0.23557 -1.13451,0.53295 -1.26512,0.92524 -0.0785,0.41848 0.0736,1.20394 0.45318,2.34141 0.3271,0.98059 0.22789,1.90096 -0.321,2.73794 -0.50979,0.82389 -1.33617,1.41434 -2.47359,1.79382 -1.08448,0.36179 -2.37829,0.43814 -3.90864,0.22659 2.32326,-10.10018 0.0608,-1.16136 4.85276,-20.39293 0.058,-0.29 0.0944,-0.5246 0.0944,-0.69865 -5e-5,-0.23199 -5e-5,-0.46659 0,-0.69864 -0.058,-1.04409 -0.4369,-1.89213 -1.13294,-2.53024 -0.69611,-0.69604 -1.54416,-1.0385 -2.53024,-1.03852 -0.23205,2e-5 -0.48417,0.0365 -0.77417,0.0944 -0.23206,3e-5 -0.50306,0.0175 -0.79306,0.0756 -1.04415,0.17405 -2.09038,0.5529 -3.13446,1.13294 -1.04416,0.5801 -2.14432,1.37421 -3.30442,2.36029 -1.10215,-1.33411 -2.31016,-2.29002 -3.64429,-2.87011 -1.27617,-0.63805 -2.79159,-0.96297 -4.53176,-0.96301 -5.04658,4e-5 -9.59149,2.38103 -13.65193,7.13753 -4.00246,4.75656 -6.00458,10.11309 -6.00458,16.08775 0,0.5697 0.0289,1.12856 0.0755,1.66165 -0.0473,0 -0.0848,1e-5 -0.15106,0 -0.058,1e-5 -0.12948,1e-5 -0.24546,0 -0.81213,1e-5 -1.46198,-0.271 -1.92601,-0.79306 -0.46407,-0.58005 -0.69866,-1.31888 -0.69864,-2.247 -2e-5,-0.174 -2e-5,-0.4086 0,-0.69864 0.058,-0.29002 0.13082,-0.57854 0.18883,-0.86859 0.058,-0.116 0.0755,-0.24274 0.0755,-0.35876 0.058,-0.11601 0.0944,-0.22386 0.0944,-0.33988 l 2.94565,-13.84076 c 0.11601,-0.29001 0.1888,-0.57853 0.18882,-0.86859 -2e-5,-0.34801 -2e-5,-0.67294 0,-0.963 -0.028,-0.61563 -0.16065,-1.16212 -0.37764,-1.64276 1.68377,-0.64535 3.09983,-1.61523 4.22964,-2.92676 1.7105,-1.98229 2.37057,-4.2832 1.98265,-6.89205 -0.23896,-1.60707 -0.99723,-2.88835 -2.247,-3.83312 -1.24664,-0.92395 -2.67923,-1.25861 -4.28629,-1.01965 l -0.15106,0.0189 -0.18882,0.0189 c -1.15635,0.25727 -2.16775,0.82307 -3.04006,1.69941 -0.89317,0.87945 -1.32592,1.77218 -1.30289,2.64353 -0.0146,0.0449 -0.006,0.0716 0,0.11329 0.006,0.0417 0.0127,0.0904 0.0189,0.13219 0.0342,0.22956 0.13433,0.4043 0.30212,0.5287 0.15006,0.14834 0.31802,0.22296 0.54759,0.18882 0.0835,-0.0124 0.18398,-0.0611 0.26435,-0.0944 0.0804,-0.0333 0.13448,-0.0652 0.16994,-0.1133 0.28205,-0.25526 0.49255,-0.4404 0.62312,-0.56646 0.13378,-0.10512 0.25555,-0.1682 0.37764,-0.20771 0.0386,-0.0272 0.0886,-0.0471 0.15106,-0.0566 0.0626,-0.009 0.14113,-0.0222 0.24548,-0.0377 -10e-6,-1e-5 0.017,0.004 0.0377,0 -1e-5,-1e-5 0.017,-0.0159 0.0377,-0.0189 0.45917,-0.0683 0.87843,0.0536 1.26512,0.35877 0.38668,0.30517 0.60527,0.70757 0.67977,1.20847 0.0962,0.64698 -0.0732,1.23508 -0.54759,1.77494 -0.49213,0.56381 -1.11997,0.911 -1.85047,1.01965 -0.98091,0.14584 -1.83635,-0.10104 -2.568,-0.71753 -0.75252,-0.61341 -1.21392,-1.46186 -1.37841,-2.56801 -0.0838,-0.56352 -0.0632,-1.16262 0.0377,-1.77493 0.10097,-0.61233 0.3008,-1.2598 0.60423,-1.94488 0.0325,-0.0688 0.062,-0.13894 0.0944,-0.20771 0.0325,-0.0689 0.0641,-0.12311 0.0755,-0.18882 0.13283,-0.25444 0.26062,-0.50288 0.39654,-0.73641 0.1182,-0.20955 0.27239,-0.42315 0.45317,-0.642 2.0181,-2.81286 4.13503,-6.15314 -0.41541,-4.77724 -2.46666,0.74412 -5.6184,3.54723 -7.21305,6.43888 -1.11903,2.0863 -1.50248,4.32593 -1.15183,6.68435 0.35045,2.35665 1.4221,4.17092 3.19112,5.49476 -1.81678,0.81271 -3.68748,2.01522 -5.60805,3.60653 0.63806,0.34806 1.10725,0.78084 1.39729,1.30288 0.34802,0.46408 0.52869,1.0236 0.5287,1.66165 -10e-6,0.40607 -0.0364,0.83885 -0.0944,1.30288 -0.058,0.40607 -0.14835,0.89278 -0.26435,1.47282 l -1.17071,5.457 -0.0566,-0.15106 -0.50983,-2.43583 c -0.058,-0.11599 -0.058,-0.22385 0,-0.33987 l -0.26435,-0.69865 -0.16994,-0.16995 -1.05741,-2.26587 -0.24548,-0.35877 -0.18881,-0.33988 -0.4343,-0.69865 c -0.17405,-0.232 -0.31832,-0.43019 -0.4343,-0.60423 -0.058,-0.11601 -0.11199,-0.16992 -0.16994,-0.16994 l -0.26435,-0.35877 -0.16994,-0.16994 -0.16994,-0.26435 0,-0.16995 -0.35876,-0.16993 0,-0.16994 -1.20847,-1.22735 0.16994,-0.16995 0.16994,-0.35876 1.30288,-1.64276 c 0.23199,-0.40602 0.50299,-0.83881 0.79306,-1.30289 l 0.0944,-0.35876 0.60423,-1.13294 0,-0.16994 0.16995,-0.33989 0.0944,-0.16994 0,-0.96299 -0.5287,-1.13295 c -0.29007,-0.17398 -0.66892,-0.3007 -1.13294,-0.35877 l -0.26435,0 -0.33988,0.0944 -2.87012,0.5287 c -9.28107,4.75657 -15.28746,8.6705 -18.01375,11.74482 -2.66832,3.01636 -4.0934,4.69356 -4.26741,5.04159 l 2.60576,-0.52871 c 0.17401,-0.058 0.30076,-0.058 0.35877,0 l 0.77418,-0.16994 2.43582,-0.26436 0.5287,-0.0755 0.86859,-0.0944 0.5287,-0.0755 0.43429,0 1.30289,0 3.13447,-3.56877 0.33988,-0.35876 0.26436,-0.4343 -0.16995,0.79306 c -0.058,0.23206 -0.0944,0.39384 -0.0944,0.50983 l -0.0756,0.26435 -0.18882,1.03853 c -0.058,0.23204 -0.0216,0.46664 0.0944,0.69865 l -0.0944,0.35876 c 0.058,0.34805 0.14831,0.63658 0.26435,0.86859 4.87252,0.87012 7.54203,2.81832 8.00611,5.83464 -6.26473,-3.30635 -12.79424,-3.95621 -19.58099,-1.926 l -0.86859,0.35877 -1.64276,0.67976 c -0.11601,0.058 -0.15242,0.13082 -0.0944,0.18882 l -0.33988,0.24548 -2.26588,1.13293 -0.26436,0.18883 -1.39729,0.94412 -0.0756,0.0944 -0.35876,0.33989 -0.77418,0.79306 c -0.16469,0.48335 -0.32131,0.93935 -0.43429,1.39729 -0.29468,-0.45137 -0.45321,-0.96701 -0.45318,-1.56723 -4e-5,-0.23202 0.0364,-0.59335 0.0944,-1.05741 0.11597,-0.52205 0.22383,-1.06269 0.33988,-1.64276 l 2.96453,-13.67082 c -4e-5,-0.11599 -4e-5,-0.22385 0,-0.33988 0.058,-0.11599 0.0944,-0.24273 0.0944,-0.35877 0.058,-0.11599 0.0755,-0.22384 0.0756,-0.33988 -5e-5,-0.11598 -5e-5,-0.22384 0,-0.33988 -5e-5,-1.39213 -0.45035,-2.51117 -1.37841,-3.3233 -0.87015,-0.81205 -2.06064,-1.20844 -3.56877,-1.20847 -0.29007,3e-5 -0.57859,0.0365 -0.86858,0.0944 -0.29007,3e-5 -0.59748,3e-5 -0.88748,0 -1.56621,0.23205 -3.15308,0.73629 -4.77723,1.54835 -0.47117,0.23559 -0.95857,0.51624 -1.45394,0.81194 l -1.62388,6.9487 c -0.0269,0.20334 -0.0639,0.39932 -0.13218,0.60424 l -0.0189,0.0377 -0.0755,0.35877 0,0.0377 -0.77418,3.26665 -0.69865,3.00228 c -0.46408,1.85623 -1.07752,3.20851 -1.83159,4.07859 -0.75411,0.8121 -1.74641,1.22736 -2.96452,1.22736 -0.69611,0 -1.27315,-0.19819 -1.73717,-0.60424 -0.40607,-0.40604 -0.60426,-0.96556 -0.60424,-1.66165 -2e-5,-0.174 0.0175,-0.40859 0.0756,-0.69864 0.058,-0.34803 0.13082,-0.69048 0.18882,-1.03853 l 2.51136,-12.10358 c -3e-5,-0.058 -3e-5,-0.0755 0,-0.0755 0.058,-0.058 0.0944,-0.13082 0.0944,-0.18883 -2e-5,-0.11598 -2e-5,-0.22384 0,-0.33987 -2e-5,-0.11599 -2e-5,-0.29665 0,-0.52871 -2e-5,-1.50814 -0.46921,-2.66223 -1.39729,-3.47435 -0.87012,-0.87007 -2.07813,-1.30286 -3.64429,-1.30289 -1.16015,3e-5 -2.44098,0.23463 -3.83311,0.69866 -1.39217,0.46407 -2.78086,1.09505 -4.173,1.90711 -0.0152,0.01 -0.0226,0.0281 -0.0377,0.0377 l -2.64353,12.27352 -2.0393,9.81882 c -0.0959,0.0345 -0.19014,0.0567 -0.28323,0.0566 -0.17408,0.058 -0.35474,0.0944 -0.5287,0.0944 -0.11608,10e-6 -0.22393,10e-6 -0.33988,0 -0.69614,10e-6 -1.3096,-0.27099 -1.83159,-0.79306 -0.46411,-0.52205 -0.69871,-1.15301 -0.69865,-1.90711 -6e-5,-0.17401 0.0364,-0.42613 0.0944,-0.77418 0.058,-0.34803 0.11187,-0.70936 0.16994,-1.05741 -7e-5,-0.058 -7e-5,-0.11194 0,-0.16994 0.058,-0.058 0.0944,-0.11193 0.0944,-0.16994 l 2.34141,-11.14058 c 0.058,-0.11599 0.0943,-0.22385 0.0944,-0.33988 -6e-5,-0.174 0.0174,-0.33714 0.0755,-0.45318 -6e-5,-0.232 -6e-5,-0.44771 0,-0.67976 0.058,-0.29001 0.0943,-0.57853 0.0944,-0.86859 -6e-5,-2.0302 -0.75777,-3.68988 -2.26588,-4.96606 -1.45023,-1.27611 -3.32561,-1.90708 -5.64582,-1.90711 -0.87015,3e-5 -1.73572,0.0715 -2.60576,0.24547 -0.81214,0.11604 -1.64266,0.33311 -2.45471,0.62312 -1.16018,0.40607 -2.33179,0.94671 -3.54988,1.64276 -1.16017,0.6961 -2.38707,1.56167 -3.66317,2.60576 -0.4641,-1.68216 -1.36607,-2.9441 -2.70018,-3.81423 -1.27617,-0.92808 -2.91698,-1.39727 -4.94717,-1.3973 -0.6381,3e-5 -1.28796,0.0364 -1.926,0.0944 -0.58009,0.058 -1.15714,0.16589 -1.73718,0.33988 -1.16015,0.34807 -2.38706,0.88871 -3.66317,1.64277 -1.27617,0.75411 -2.75518,1.80034 -4.43735,3.13446 -0.058,-1.62415 -0.50834,-2.86858 -1.37841,-3.7387 -0.87011,-0.87007 -2.06061,-1.30286 -3.56876,-1.30288 -0.92812,2e-5 -1.88402,0.12677 -2.87012,0.35876 -0.98612,0.17405 -1.97843,0.48009 -2.96453,0.94412 -0.87794,0.34144 -1.73107,0.77855 -2.56799,1.28399 l -1.605,7.42077 c -0.005,0.0307 0.005,0.0637 0,0.0944 l -0.0189,0.0566 -0.0756,0.321 c -6e-4,0.0192 0,0.0367 0,0.0566 0,0.17405 -0.0175,0.33583 -0.0755,0.50983 l -1.85047,8.45928 -0.0755,0.321 -1.0763,4.89053 c -0.0785,0.0272 -0.14447,0.0447 -0.22659,0.0756 -0.11606,0.058 -0.24279,0.13082 -0.35876,0.18882 -0.0581,1e-5 -0.14839,1e-5 -0.26436,0 -0.17405,0.058 -0.37225,0.11193 -0.60423,0.16995 -0.17406,0 -0.37225,0 -0.60424,0 -0.69612,0 -1.30956,-0.23459 -1.83158,-0.69865 -0.5221,-0.52206 -0.75671,-1.08157 -0.69865,-1.66165 -3e-5,-0.29002 0.0363,-0.64999 0.0944,-1.11405 0.11598,-0.52205 0.26024,-1.17191 0.43429,-1.92601 l 3.20995,-14.44489 c 0.11594,-0.34801 0.18878,-0.65406 0.18882,-0.94412 0.058,-0.29 0.0755,-0.52459 0.0756,-0.69864 -5e-5,-0.98609 -0.34249,-1.7802 -1.03853,-2.3603 -0.69612,-0.63804 -1.63449,-0.94409 -2.79459,-0.94412 -0.29007,3e-5 -0.57858,0.0176 -0.86858,0.0756 -0.29007,2e-5 -0.54219,0.0365 -0.77418,0.0944 -0.81213,0.17405 -1.67769,0.51651 -2.60576,1.03853 -0.87013,0.46408 -2.09703,1.23932 -3.66317,2.34141 -1.10216,-1.27611 -2.38299,-2.19561 -3.83312,-2.7757 -1.39218,-0.63804 -2.92513,-0.96297 -4.60729,-0.96299 -4.81457,2e-5 -9.2152,2.41742 -13.21764,7.23193 -3.94445,4.75655 -5.92906,10.05917 -5.92906,15.91781 0,0.55389 0.0299,1.08413 0.0756,1.605 -0.0576,0.0138 -0.11332,0.0378 -0.16994,0.0566 -0.11605,1e-5 -0.27783,1e-5 -0.50982,0 -0.69612,1e-5 -1.27317,-0.23459 -1.73717,-0.69865 -0.4641,-0.52205 -0.69869,-1.1719 -0.69866,-1.926 -3e-5,-0.23202 -3e-5,-0.52053 0,-0.86859 0.058,-0.34802 0.11188,-0.69048 0.16995,-1.03853 0.058,-0.058 0.0944,-0.14832 0.0944,-0.26435 0.058,-0.116 0.0755,-0.20635 0.0756,-0.26435 l 7.66623,-34.63022 c 0.058,-0.11596 0.0755,-0.1874 0.0755,-0.24547 -5e-5,-0.11596 0.0363,-0.24271 0.0944,-0.35877 -5e-5,-0.11596 -5e-5,-0.22381 0,-0.33987 -5e-5,-0.11597 -5e-5,-0.26023 0,-0.4343 -5e-5,-1.50812 -0.46923,-2.68108 -1.39729,-3.49323 -0.92815,-0.81203 -2.2265,-1.20841 -3.90864,-1.20847 z m 207.12039,25.49116 c -2e-5,3e-5 0.0175,0.0364 0.0755,0.0944 0.11599,3e-5 0.24274,3e-5 0.35877,0 0.63805,0.23206 1.03443,0.97088 1.20847,2.24701 0.232,1.27616 0.21448,2.97225 -0.0755,5.06046 -0.52209,3.65443 -1.37014,6.84705 -2.53024,9.57334 -1.10214,2.72632 -2.11197,3.98826 -3.04006,3.81424 -0.69609,-0.058 -1.16528,-0.7429 -1.39729,-2.07706 -0.23205,-1.39215 -0.21452,-3.14216 0.0755,-5.23041 -2e-5,-0.17401 -2e-5,-0.28187 0,-0.33988 0.058,-0.058 0.0944,-0.14833 0.0944,-0.26435 0.46403,-3.13234 1.22174,-5.94611 2.26588,-8.44041 1.10211,-2.55226 2.09441,-4.03127 2.96453,-4.43735 z m -186.50087,0.5287 c -3e-5,4e-5 0.0364,0.0175 0.0944,0.0756 0.116,2e-5 0.22385,2e-5 0.33989,0 0.63805,0.23205 1.05331,0.98976 1.22735,2.26588 0.232,1.27616 0.1956,2.95337 -0.0944,5.04159 -0.52209,3.65443 -1.35125,6.84704 -2.51135,9.57334 -1.10214,2.72632 -2.13086,4.00714 -3.05894,3.83311 -0.69609,-0.058 -1.1464,-0.76178 -1.37841,-2.09593 -0.23205,-1.39215 -0.21452,-3.12328 0.0755,-5.21153 -1e-5,-0.17401 -1e-5,-0.30076 0,-0.35877 0.058,-0.058 0.0944,-0.12944 0.0944,-0.24546 0.46403,-3.13234 1.22174,-5.94611 2.26588,-8.44041 1.1021,-2.55227 2.07552,-4.03128 2.94565,-4.43735 z m -37.16045,0.67977 c -2e-5,2e-5 0.0364,0.0364 0.0944,0.0944 0.058,3e-5 0.14832,3e-5 0.26436,0 0.46402,0.17405 0.77006,0.7875 0.94411,1.83159 0.174,0.98613 0.15647,2.28449 -0.0756,3.90864 -0.40607,2.90035 -1.07345,5.462 -2.00153,7.66623 -0.87012,2.14626 -1.68176,3.11968 -2.43582,2.94565 -0.52208,1e-5 -0.90093,-0.54063 -1.13294,-1.64276 -0.17404,-1.10212 -0.13763,-2.47327 0.0944,-4.09747 -2e-5,-0.174 -2e-5,-0.26434 0,-0.26435 0.058,-0.058 0.0755,-0.12945 0.0755,-0.24547 0.40602,-2.49427 1.01947,-4.73099 1.83159,-6.70324 0.87007,-1.9722 1.64531,-3.14516 2.34141,-3.49323 z m 170.05435,15.69123 c 1.4411,0.0226 2.72812,0.3059 3.852,0.8497 -0.87012,1.6822 -2.457,2.81876 -4.77723,3.39882 -2.72633,0.8121 -4.6206,0.48717 -5.6647,-0.963 -0.29005,-0.63806 -0.32645,-1.25151 -0.0944,-1.83159 l 0.18882,-0.0755 0.86859,-0.35877 0.50982,-0.0755 2.36029,-0.69866 c 0.97885,-0.17401 1.89216,-0.25906 2.75682,-0.24546 z"
         id="path2998-0-2"
         inkscape:connector-curvature="0"
         inkscape:export-filename="/home/gbort/Projects/pdf-scores.herokuapp.com/public/images/path2998-0-2.png"
         inkscape:export-xdpi="33.48315"
         inkscape:export-ydpi="33.48315" />
      <text
         xml:space="preserve"
         style="font-size:24.16939544999999967px;font-style:normal;font-variant:normal;font-weight:normal;font-stretch:normal;line-height:125%;letter-spacing:0px;word-spacing:0px;fill:#ff9955;fill-opacity:1;stroke:none;font-family:Sawasdee;-inkscape-font-specification:Sawasdee"
         x="342.35522"
         y="363.21777"
         id="text3002"
         sodipodi:linespacing="125%"><tspan
           sodipodi:role="line"
           id="tspan3004"
           x="342.35522"
           y="363.21777"
           style="font-style:normal;font-variant:normal;font-weight:normal;font-stretch:normal;fill:#ff9955;font-family:Waree;-inkscape-font-specification:Waree">.com</tspan></text>
    </g>
  </g>
</svg>
